<svg width="90" height="90" viewBox="0 0 90 90" fill="none" xmlns="http://www.w3.org/2000/svg">
<path d="M37.0779 46.0265C36.4249 46.0265 35.887 46.2029 35.8487 46.749C35.791 47.489 35.6374 48.6343 33.8896 48.6343C32.5642 48.6343 31.8344 47.9825 31.8344 46.608V41.6921C31.8342 40.3179 32.564 39.6659 33.8509 39.6659C35.6755 39.6659 35.81 40.864 35.8485 41.4102C35.8677 41.9388 36.3864 42.1326 37.0971 42.1326C37.9421 42.1326 38.3455 41.9212 38.3455 41.005C38.3455 38.9612 36.4441 37.6572 33.7743 37.6572C31.3541 37.6572 29.3374 38.7497 29.3374 41.6921V46.608C29.3374 49.5506 31.335 50.6429 33.755 50.6429C36.4441 50.6429 38.3455 49.2862 38.3455 47.1542C38.3455 46.2556 37.9422 46.0265 37.0779 46.0265Z" fill="#3F8BB5"/>
<path d="M44.837 37.6572H40.9763C40.4001 37.6572 40.0352 37.9919 40.0352 38.3621V49.815C40.0352 50.2906 40.6499 50.5374 41.2836 50.5374C41.8981 50.5374 42.532 50.2906 42.532 49.815V45.7272H44.6832C47.2187 45.7272 49.1969 44.6171 49.1969 41.7275V41.6216C49.1969 38.732 47.2762 37.6572 44.837 37.6572ZM46.7 41.9038C46.7 43.2782 45.9316 43.9302 44.6832 43.9302H42.532V39.6659H44.6832C45.9318 39.6659 46.7 40.3179 46.7 41.6923V41.9038Z" fill="#3F8BB5"/>
<path d="M58.6464 37.6572C58.0125 37.6572 57.398 37.8687 57.398 38.3621V46.6082C57.398 47.9826 56.6105 48.6344 55.2852 48.6344C53.9599 48.6344 53.1724 47.9826 53.1724 46.6082V38.3621C53.1724 37.8687 52.5385 37.6572 51.924 37.6572C51.2901 37.6572 50.6754 37.8687 50.6754 38.3621V46.6082C50.6754 49.5508 52.6921 50.6431 55.2851 50.6431C57.8588 50.6431 59.8947 49.5506 59.8947 46.6082V38.3621C59.8947 37.8687 59.2609 37.6572 58.6464 37.6572Z" fill="#3F8BB5"/>
<path d="M11.7773 12.6C12.5588 12.6 13.1924 11.9664 13.1924 11.1849C13.1924 10.4034 12.5588 9.76991 11.7773 9.76991C10.9958 9.76991 10.3623 10.4034 10.3623 11.1849C10.3623 11.9664 10.9958 12.6 11.7773 12.6Z" fill="#3F8BB5"/>
<path d="M17.7961 12.6C18.5776 12.6 19.2111 11.9664 19.2111 11.1849C19.2111 10.4034 18.5776 9.76991 17.7961 9.76991C17.0146 9.76991 16.3811 10.4034 16.3811 11.1849C16.3811 11.9664 17.0146 12.6 17.7961 12.6Z" fill="#3F8BB5"/>
<path d="M23.8166 12.6C24.5981 12.6 25.2317 11.9664 25.2317 11.1849C25.2317 10.4034 24.5981 9.76991 23.8166 9.76991C23.0351 9.76991 22.4016 10.4034 22.4016 11.1849C22.4016 11.9664 23.0351 12.6 23.8166 12.6Z" fill="#3F8BB5"/>
<path d="M29.8354 12.6C30.6169 12.6 31.2505 11.9664 31.2505 11.1849C31.2505 10.4034 30.6169 9.76991 29.8354 9.76991C29.0539 9.76991 28.4204 10.4034 28.4204 11.1849C28.4204 11.9664 29.0539 12.6 29.8354 12.6Z" fill="#3F8BB5"/>
<path d="M35.8541 12.6C36.6356 12.6 37.2692 11.9664 37.2692 11.1849C37.2692 10.4034 36.6356 9.76991 35.8541 9.76991C35.0726 9.76991 34.4391 10.4034 34.4391 11.1849C34.4391 11.9664 35.0726 12.6 35.8541 12.6Z" fill="#3F8BB5"/>
<path d="M41.8729 12.6C42.6544 12.6 43.288 11.9664 43.288 11.1849C43.288 10.4034 42.6544 9.76991 41.8729 9.76991C41.0914 9.76991 40.4579 10.4034 40.4579 11.1849C40.4579 11.9664 41.0914 12.6 41.8729 12.6Z" fill="#3F8BB5"/>
<path d="M47.8917 12.6C48.6732 12.6 49.3067 11.9664 49.3067 11.1849C49.3067 10.4034 48.6732 9.76991 47.8917 9.76991C47.1102 9.76991 46.4767 10.4034 46.4767 11.1849C46.4767 11.9664 47.1102 12.6 47.8917 12.6Z" fill="#3F8BB5"/>
<path d="M53.9103 12.6C54.6918 12.6 55.3253 11.9664 55.3253 11.1849C55.3253 10.4034 54.6918 9.76991 53.9103 9.76991C53.1288 9.76991 52.4952 10.4034 52.4952 11.1849C52.4952 11.9664 53.1288 12.6 53.9103 12.6Z" fill="#3F8BB5"/>
<path d="M59.9308 12.6C60.7123 12.6 61.3458 11.9664 61.3458 11.1849C61.3458 10.4034 60.7123 9.76991 59.9308 9.76991C59.1493 9.76991 58.5157 10.4034 58.5157 11.1849C58.5157 11.9664 59.1493 12.6 59.9308 12.6Z" fill="#3F8BB5"/>
<path d="M65.9497 12.6C66.7312 12.6 67.3647 11.9664 67.3647 11.1849C67.3647 10.4034 66.7312 9.76991 65.9497 9.76991C65.1682 9.76991 64.5347 10.4034 64.5347 11.1849C64.5347 11.9664 65.1682 12.6 65.9497 12.6Z" fill="#3F8BB5"/>
<path d="M71.9683 12.6C72.7498 12.6 73.3833 11.9664 73.3833 11.1849C73.3833 10.4034 72.7498 9.76991 71.9683 9.76991C71.1868 9.76991 70.5532 10.4034 70.5532 11.1849C70.5532 11.9664 71.1868 12.6 71.9683 12.6Z" fill="#3F8BB5"/>
<path d="M77.9872 12.6C78.7687 12.6 79.4022 11.9664 79.4022 11.1849C79.4022 10.4034 78.7687 9.76991 77.9872 9.76991C77.2057 9.76991 76.5721 10.4034 76.5721 11.1849C76.5721 11.9664 77.2057 12.6 77.9872 12.6Z" fill="#3F8BB5"/>
<path d="M11.7773 18.6961C12.5588 18.6961 13.1924 18.0625 13.1924 17.281C13.1924 16.4995 12.5588 15.866 11.7773 15.866C10.9958 15.866 10.3623 16.4995 10.3623 17.281C10.3623 18.0625 10.9958 18.6961 11.7773 18.6961Z" fill="#3F8BB5"/>
<path d="M17.7961 18.6961C18.5776 18.6961 19.2111 18.0625 19.2111 17.281C19.2111 16.4995 18.5776 15.866 17.7961 15.866C17.0146 15.866 16.3811 16.4995 16.3811 17.281C16.3811 18.0625 17.0146 18.6961 17.7961 18.6961Z" fill="#3F8BB5"/>
<path d="M23.8166 18.6961C24.5981 18.6961 25.2317 18.0625 25.2317 17.281C25.2317 16.4995 24.5981 15.866 23.8166 15.866C23.0351 15.866 22.4016 16.4995 22.4016 17.281C22.4016 18.0625 23.0351 18.6961 23.8166 18.6961Z" fill="#3F8BB5"/>
<path d="M29.8354 18.6961C30.6169 18.6961 31.2505 18.0625 31.2505 17.281C31.2505 16.4995 30.6169 15.866 29.8354 15.866C29.0539 15.866 28.4204 16.4995 28.4204 17.281C28.4204 18.0625 29.0539 18.6961 29.8354 18.6961Z" fill="#3F8BB5"/>
<path d="M35.8541 18.6961C36.6356 18.6961 37.2692 18.0625 37.2692 17.281C37.2692 16.4995 36.6356 15.866 35.8541 15.866C35.0726 15.866 34.4391 16.4995 34.4391 17.281C34.4391 18.0625 35.0726 18.6961 35.8541 18.6961Z" fill="#3F8BB5"/>
<path d="M41.8729 18.6961C42.6544 18.6961 43.288 18.0625 43.288 17.281C43.288 16.4995 42.6544 15.866 41.8729 15.866C41.0914 15.866 40.4579 16.4995 40.4579 17.281C40.4579 18.0625 41.0914 18.6961 41.8729 18.6961Z" fill="#3F8BB5"/>
<path d="M47.8917 18.6961C48.6732 18.6961 49.3067 18.0625 49.3067 17.281C49.3067 16.4995 48.6732 15.866 47.8917 15.866C47.1102 15.866 46.4767 16.4995 46.4767 17.281C46.4767 18.0625 47.1102 18.6961 47.8917 18.6961Z" fill="#3F8BB5"/>
<path d="M53.9103 18.6961C54.6918 18.6961 55.3253 18.0625 55.3253 17.281C55.3253 16.4995 54.6918 15.866 53.9103 15.866C53.1288 15.866 52.4952 16.4995 52.4952 17.281C52.4952 18.0625 53.1288 18.6961 53.9103 18.6961Z" fill="#3F8BB5"/>
<path d="M59.9308 18.6961C60.7123 18.6961 61.3458 18.0625 61.3458 17.281C61.3458 16.4995 60.7123 15.866 59.9308 15.866C59.1493 15.866 58.5157 16.4995 58.5157 17.281C58.5157 18.0625 59.1493 18.6961 59.9308 18.6961Z" fill="#3F8BB5"/>
<path d="M65.9497 18.6961C66.7312 18.6961 67.3647 18.0625 67.3647 17.281C67.3647 16.4995 66.7312 15.866 65.9497 15.866C65.1682 15.866 64.5347 16.4995 64.5347 17.281C64.5347 18.0625 65.1682 18.6961 65.9497 18.6961Z" fill="#3F8BB5"/>
<path d="M71.9683 18.6961C72.7498 18.6961 73.3833 18.0625 73.3833 17.281C73.3833 16.4995 72.7498 15.866 71.9683 15.866C71.1868 15.866 70.5532 16.4995 70.5532 17.281C70.5532 18.0625 71.1868 18.6961 71.9683 18.6961Z" fill="#3F8BB5"/>
<path d="M77.9872 18.6961C78.7687 18.6961 79.4022 18.0625 79.4022 17.281C79.4022 16.4995 78.7687 15.866 77.9872 15.866C77.2057 15.866 76.5721 16.4995 76.5721 17.281C76.5721 18.0625 77.2057 18.6961 77.9872 18.6961Z" fill="#3F8BB5"/>
<path d="M11.7773 24.8467C12.5588 24.8467 13.1924 24.2131 13.1924 23.4316C13.1924 22.6501 12.5588 22.0166 11.7773 22.0166C10.9958 22.0166 10.3623 22.6501 10.3623 23.4316C10.3623 24.2131 10.9958 24.8467 11.7773 24.8467Z" fill="#3F8BB5"/>
<path d="M17.7961 24.8467C18.5776 24.8467 19.2111 24.2131 19.2111 23.4316C19.2111 22.6501 18.5776 22.0166 17.7961 22.0166C17.0146 22.0166 16.3811 22.6501 16.3811 23.4316C16.3811 24.2131 17.0146 24.8467 17.7961 24.8467Z" fill="#3F8BB5"/>
<path d="M71.9683 24.8467C72.7498 24.8467 73.3833 24.2131 73.3833 23.4316C73.3833 22.6501 72.7498 22.0166 71.9683 22.0166C71.1868 22.0166 70.5532 22.6501 70.5532 23.4316C70.5532 24.2131 71.1868 24.8467 71.9683 24.8467Z" fill="#3F8BB5"/>
<path d="M77.9872 24.8467C78.7687 24.8467 79.4022 24.2131 79.4022 23.4316C79.4022 22.6501 78.7687 22.0166 77.9872 22.0166C77.2057 22.0166 76.5721 22.6501 76.5721 23.4316C76.5721 24.2131 77.2057 24.8467 77.9872 24.8467Z" fill="#3F8BB5"/>
<path d="M11.7773 30.9428C12.5588 30.9428 13.1924 30.3092 13.1924 29.5277C13.1924 28.7462 12.5588 28.1127 11.7773 28.1127C10.9958 28.1127 10.3623 28.7462 10.3623 29.5277C10.3623 30.3092 10.9958 30.9428 11.7773 30.9428Z" fill="#3F8BB5"/>
<path d="M17.7961 30.9428C18.5776 30.9428 19.2111 30.3092 19.2111 29.5277C19.2111 28.7462 18.5776 28.1127 17.7961 28.1127C17.0146 28.1127 16.3811 28.7462 16.3811 29.5277C16.3811 30.3092 17.0146 30.9428 17.7961 30.9428Z" fill="#3F8BB5"/>
<path d="M71.9683 30.9428C72.7498 30.9428 73.3833 30.3092 73.3833 29.5277C73.3833 28.7462 72.7498 28.1127 71.9683 28.1127C71.1868 28.1127 70.5532 28.7462 70.5532 29.5277C70.5532 30.3092 71.1868 30.9428 71.9683 30.9428Z" fill="#3F8BB5"/>
<path d="M77.9872 30.9428C78.7687 30.9428 79.4022 30.3092 79.4022 29.5277C79.4022 28.7462 78.7687 28.1127 77.9872 28.1127C77.2057 28.1127 76.5721 28.7462 76.5721 29.5277C76.5721 30.3092 77.2057 30.9428 77.9872 30.9428Z" fill="#3F8BB5"/>
<path d="M11.7773 37.0934C12.5588 37.0934 13.1924 36.4598 13.1924 35.6783C13.1924 34.8968 12.5588 34.2633 11.7773 34.2633C10.9958 34.2633 10.3623 34.8968 10.3623 35.6783C10.3623 36.4598 10.9958 37.0934 11.7773 37.0934Z" fill="#3F8BB5"/>
<path d="M17.7961 37.0934C18.5776 37.0934 19.2111 36.4598 19.2111 35.6783C19.2111 34.8968 18.5776 34.2633 17.7961 34.2633C17.0146 34.2633 16.3811 34.8968 16.3811 35.6783C16.3811 36.4598 17.0146 37.0934 17.7961 37.0934Z" fill="#3F8BB5"/>
<path d="M71.9683 37.0934C72.7498 37.0934 73.3833 36.4598 73.3833 35.6783C73.3833 34.8968 72.7498 34.2633 71.9683 34.2633C71.1868 34.2633 70.5532 34.8968 70.5532 35.6783C70.5532 36.4598 71.1868 37.0934 71.9683 37.0934Z" fill="#3F8BB5"/>
<path d="M77.9872 37.0934C78.7687 37.0934 79.4022 36.4598 79.4022 35.6783C79.4022 34.8968 78.7687 34.2633 77.9872 34.2633C77.2057 34.2633 76.5721 34.8968 76.5721 35.6783C76.5721 36.4598 77.2057 37.0934 77.9872 37.0934Z" fill="#3F8BB5"/>
<path d="M11.7773 43.1895C12.5588 43.1895 13.1924 42.5559 13.1924 41.7744C13.1924 40.9929 12.5588 40.3594 11.7773 40.3594C10.9958 40.3594 10.3623 40.9929 10.3623 41.7744C10.3623 42.5559 10.9958 43.1895 11.7773 43.1895Z" fill="#3F8BB5"/>
<path d="M17.7961 43.1895C18.5776 43.1895 19.2111 42.5559 19.2111 41.7744C19.2111 40.9929 18.5776 40.3594 17.7961 40.3594C17.0146 40.3594 16.3811 40.9929 16.3811 41.7744C16.3811 42.5559 17.0146 43.1895 17.7961 43.1895Z" fill="#3F8BB5"/>
<path d="M71.9683 43.1895C72.7498 43.1895 73.3833 42.5559 73.3833 41.7744C73.3833 40.9929 72.7498 40.3594 71.9683 40.3594C71.1868 40.3594 70.5532 40.9929 70.5532 41.7744C70.5532 42.5559 71.1868 43.1895 71.9683 43.1895Z" fill="#3F8BB5"/>
<path d="M77.9872 43.1895C78.7687 43.1895 79.4022 42.5559 79.4022 41.7744C79.4022 40.9929 78.7687 40.3594 77.9872 40.3594C77.2057 40.3594 76.5721 40.9929 76.5721 41.7744C76.5721 42.5559 77.2057 43.1895 77.9872 43.1895Z" fill="#3F8BB5"/>
<path d="M11.7773 49.3401C12.5588 49.3401 13.1924 48.7065 13.1924 47.925C13.1924 47.1435 12.5588 46.51 11.7773 46.51C10.9958 46.51 10.3623 47.1435 10.3623 47.925C10.3623 48.7065 10.9958 49.3401 11.7773 49.3401Z" fill="#3F8BB5"/>
<path d="M17.7961 49.3401C18.5776 49.3401 19.2111 48.7065 19.2111 47.925C19.2111 47.1435 18.5776 46.51 17.7961 46.51C17.0146 46.51 16.3811 47.1435 16.3811 47.925C16.3811 48.7065 17.0146 49.3401 17.7961 49.3401Z" fill="#3F8BB5"/>
<path d="M71.9683 49.3401C72.7498 49.3401 73.3833 48.7065 73.3833 47.925C73.3833 47.1435 72.7498 46.51 71.9683 46.51C71.1868 46.51 70.5532 47.1435 70.5532 47.925C70.5532 48.7065 71.1868 49.3401 71.9683 49.3401Z" fill="#3F8BB5"/>
<path d="M77.9872 49.3401C78.7687 49.3401 79.4022 48.7065 79.4022 47.925C79.4022 47.1435 78.7687 46.51 77.9872 46.51C77.2057 46.51 76.5721 47.1435 76.5721 47.925C76.5721 48.7065 77.2057 49.3401 77.9872 49.3401Z" fill="#3F8BB5"/>
<path d="M11.7773 55.4361C12.5588 55.4361 13.1924 54.8026 13.1924 54.0211C13.1924 53.2396 12.5588 52.606 11.7773 52.606C10.9958 52.606 10.3623 53.2396 10.3623 54.0211C10.3623 54.8026 10.9958 55.4361 11.7773 55.4361Z" fill="#3F8BB5"/>
<path d="M17.7961 55.4361C18.5776 55.4361 19.2111 54.8026 19.2111 54.0211C19.2111 53.2396 18.5776 52.606 17.7961 52.606C17.0146 52.606 16.3811 53.2396 16.3811 54.0211C16.3811 54.8026 17.0146 55.4361 17.7961 55.4361Z" fill="#3F8BB5"/>
<path d="M71.9683 55.4361C72.7498 55.4361 73.3833 54.8026 73.3833 54.0211C73.3833 53.2396 72.7498 52.606 71.9683 52.606C71.1868 52.606 70.5532 53.2396 70.5532 54.0211C70.5532 54.8026 71.1868 55.4361 71.9683 55.4361Z" fill="#3F8BB5"/>
<path d="M77.9872 55.4361C78.7687 55.4361 79.4022 54.8026 79.4022 54.0211C79.4022 53.2396 78.7687 52.606 77.9872 52.606C77.2057 52.606 76.5721 53.2396 76.5721 54.0211C76.5721 54.8026 77.2057 55.4361 77.9872 55.4361Z" fill="#3F8BB5"/>
<path d="M11.7773 61.5867C12.5588 61.5867 13.1924 60.9532 13.1924 60.1717C13.1924 59.3902 12.5588 58.7566 11.7773 58.7566C10.9958 58.7566 10.3623 59.3902 10.3623 60.1717C10.3623 60.9532 10.9958 61.5867 11.7773 61.5867Z" fill="#3F8BB5"/>
<path d="M17.7961 61.5867C18.5776 61.5867 19.2111 60.9532 19.2111 60.1717C19.2111 59.3902 18.5776 58.7566 17.7961 58.7566C17.0146 58.7566 16.3811 59.3902 16.3811 60.1717C16.3811 60.9532 17.0146 61.5867 17.7961 61.5867Z" fill="#3F8BB5"/>
<path d="M71.9683 61.5867C72.7498 61.5867 73.3833 60.9532 73.3833 60.1717C73.3833 59.3902 72.7498 58.7566 71.9683 58.7566C71.1868 58.7566 70.5532 59.3902 70.5532 60.1717C70.5532 60.9532 71.1868 61.5867 71.9683 61.5867Z" fill="#3F8BB5"/>
<path d="M77.9872 61.5867C78.7687 61.5867 79.4022 60.9532 79.4022 60.1717C79.4022 59.3902 78.7687 58.7566 77.9872 58.7566C77.2057 58.7566 76.5721 59.3902 76.5721 60.1717C76.5721 60.9532 77.2057 61.5867 77.9872 61.5867Z" fill="#3F8BB5"/>
<path d="M11.7773 67.6811C12.5588 67.6811 13.1924 67.0475 13.1924 66.266C13.1924 65.4845 12.5588 64.851 11.7773 64.851C10.9958 64.851 10.3623 65.4845 10.3623 66.266C10.3623 67.0475 10.9958 67.6811 11.7773 67.6811Z" fill="#3F8BB5"/>
<path d="M17.7961 67.6811C18.5776 67.6811 19.2111 67.0475 19.2111 66.266C19.2111 65.4845 18.5776 64.851 17.7961 64.851C17.0146 64.851 16.3811 65.4845 16.3811 66.266C16.3811 67.0475 17.0146 67.6811 17.7961 67.6811Z" fill="#3F8BB5"/>
<path d="M71.9683 67.6811C72.7498 67.6811 73.3833 67.0475 73.3833 66.266C73.3833 65.4845 72.7498 64.851 71.9683 64.851C71.1868 64.851 70.5532 65.4845 70.5532 66.266C70.5532 67.0475 71.1868 67.6811 71.9683 67.6811Z" fill="#3F8BB5"/>
<path d="M77.9872 67.6811C78.7687 67.6811 79.4022 67.0475 79.4022 66.266C79.4022 65.4845 78.7687 64.851 77.9872 64.851C77.2057 64.851 76.5721 65.4845 76.5721 66.266C76.5721 67.0475 77.2057 67.6811 77.9872 67.6811Z" fill="#3F8BB5"/>
<path d="M11.7773 73.8334C12.5588 73.8334 13.1924 73.1999 13.1924 72.4184C13.1924 71.6369 12.5588 71.0033 11.7773 71.0033C10.9958 71.0033 10.3623 71.6369 10.3623 72.4184C10.3623 73.1999 10.9958 73.8334 11.7773 73.8334Z" fill="#3F8BB5"/>
<path d="M17.7961 73.8334C18.5776 73.8334 19.2111 73.1999 19.2111 72.4184C19.2111 71.6369 18.5776 71.0033 17.7961 71.0033C17.0146 71.0033 16.3811 71.6369 16.3811 72.4184C16.3811 73.1999 17.0146 73.8334 17.7961 73.8334Z" fill="#3F8BB5"/>
<path d="M23.8166 73.8334C24.5981 73.8334 25.2317 73.1999 25.2317 72.4184C25.2317 71.6369 24.5981 71.0033 23.8166 71.0033C23.0351 71.0033 22.4016 71.6369 22.4016 72.4184C22.4016 73.1999 23.0351 73.8334 23.8166 73.8334Z" fill="#3F8BB5"/>
<path d="M29.8354 73.8334C30.6169 73.8334 31.2505 73.1999 31.2505 72.4184C31.2505 71.6369 30.6169 71.0033 29.8354 71.0033C29.0539 71.0033 28.4204 71.6369 28.4204 72.4184C28.4204 73.1999 29.0539 73.8334 29.8354 73.8334Z" fill="#3F8BB5"/>
<path d="M35.8541 73.8334C36.6356 73.8334 37.2692 73.1999 37.2692 72.4184C37.2692 71.6369 36.6356 71.0033 35.8541 71.0033C35.0726 71.0033 34.4391 71.6369 34.4391 72.4184C34.4391 73.1999 35.0726 73.8334 35.8541 73.8334Z" fill="#3F8BB5"/>
<path d="M41.8729 73.8334C42.6544 73.8334 43.288 73.1999 43.288 72.4184C43.288 71.6369 42.6544 71.0033 41.8729 71.0033C41.0914 71.0033 40.4579 71.6369 40.4579 72.4184C40.4579 73.1999 41.0914 73.8334 41.8729 73.8334Z" fill="#3F8BB5"/>
<path d="M47.8917 73.8334C48.6732 73.8334 49.3067 73.1999 49.3067 72.4184C49.3067 71.6369 48.6732 71.0033 47.8917 71.0033C47.1102 71.0033 46.4767 71.6369 46.4767 72.4184C46.4767 73.1999 47.1102 73.8334 47.8917 73.8334Z" fill="#3F8BB5"/>
<path d="M53.9103 73.8334C54.6918 73.8334 55.3253 73.1999 55.3253 72.4184C55.3253 71.6369 54.6918 71.0033 53.9103 71.0033C53.1288 71.0033 52.4952 71.6369 52.4952 72.4184C52.4952 73.1999 53.1288 73.8334 53.9103 73.8334Z" fill="#3F8BB5"/>
<path d="M59.9308 73.8334C60.7123 73.8334 61.3458 73.1999 61.3458 72.4184C61.3458 71.6369 60.7123 71.0033 59.9308 71.0033C59.1493 71.0033 58.5157 71.6369 58.5157 72.4184C58.5157 73.1999 59.1493 73.8334 59.9308 73.8334Z" fill="#3F8BB5"/>
<path d="M65.9497 73.8334C66.7312 73.8334 67.3647 73.1999 67.3647 72.4184C67.3647 71.6369 66.7312 71.0033 65.9497 71.0033C65.1682 71.0033 64.5347 71.6369 64.5347 72.4184C64.5347 73.1999 65.1682 73.8334 65.9497 73.8334Z" fill="#3F8BB5"/>
<path d="M71.9683 73.8334C72.7498 73.8334 73.3833 73.1999 73.3833 72.4184C73.3833 71.6369 72.7498 71.0033 71.9683 71.0033C71.1868 71.0033 70.5532 71.6369 70.5532 72.4184C70.5532 73.1999 71.1868 73.8334 71.9683 73.8334Z" fill="#3F8BB5"/>
<path d="M77.9872 73.8334C78.7687 73.8334 79.4022 73.1999 79.4022 72.4184C79.4022 71.6369 78.7687 71.0033 77.9872 71.0033C77.2057 71.0033 76.5721 71.6369 76.5721 72.4184C76.5721 73.1999 77.2057 73.8334 77.9872 73.8334Z" fill="#3F8BB5"/>
<path d="M11.7773 79.9277C12.5588 79.9277 13.1924 79.2942 13.1924 78.5127C13.1924 77.7312 12.5588 77.0977 11.7773 77.0977C10.9958 77.0977 10.3623 77.7312 10.3623 78.5127C10.3623 79.2942 10.9958 79.9277 11.7773 79.9277Z" fill="#3F8BB5"/>
<path d="M17.7961 79.9277C18.5776 79.9277 19.2111 79.2942 19.2111 78.5127C19.2111 77.7312 18.5776 77.0977 17.7961 77.0977C17.0146 77.0977 16.3811 77.7312 16.3811 78.5127C16.3811 79.2942 17.0146 79.9277 17.7961 79.9277Z" fill="#3F8BB5"/>
<path d="M23.8166 79.9277C24.5981 79.9277 25.2317 79.2942 25.2317 78.5127C25.2317 77.7312 24.5981 77.0977 23.8166 77.0977C23.0351 77.0977 22.4016 77.7312 22.4016 78.5127C22.4016 79.2942 23.0351 79.9277 23.8166 79.9277Z" fill="#3F8BB5"/>
<path d="M29.8354 79.9277C30.6169 79.9277 31.2505 79.2942 31.2505 78.5127C31.2505 77.7312 30.6169 77.0977 29.8354 77.0977C29.0539 77.0977 28.4204 77.7312 28.4204 78.5127C28.4204 79.2942 29.0539 79.9277 29.8354 79.9277Z" fill="#3F8BB5"/>
<path d="M35.8541 79.9277C36.6356 79.9277 37.2692 79.2942 37.2692 78.5127C37.2692 77.7312 36.6356 77.0977 35.8541 77.0977C35.0726 77.0977 34.4391 77.7312 34.4391 78.5127C34.4391 79.2942 35.0726 79.9277 35.8541 79.9277Z" fill="#3F8BB5"/>
<path d="M41.8729 79.9277C42.6544 79.9277 43.288 79.2942 43.288 78.5127C43.288 77.7312 42.6544 77.0977 41.8729 77.0977C41.0914 77.0977 40.4579 77.7312 40.4579 78.5127C40.4579 79.2942 41.0914 79.9277 41.8729 79.9277Z" fill="#3F8BB5"/>
<path d="M47.8917 79.9277C48.6732 79.9277 49.3067 79.2942 49.3067 78.5127C49.3067 77.7312 48.6732 77.0977 47.8917 77.0977C47.1102 77.0977 46.4767 77.7312 46.4767 78.5127C46.4767 79.2942 47.1102 79.9277 47.8917 79.9277Z" fill="#3F8BB5"/>
<path d="M53.9103 79.9277C54.6918 79.9277 55.3253 79.2942 55.3253 78.5127C55.3253 77.7312 54.6918 77.0977 53.9103 77.0977C53.1288 77.0977 52.4952 77.7312 52.4952 78.5127C52.4952 79.2942 53.1288 79.9277 53.9103 79.9277Z" fill="#3F8BB5"/>
<path d="M59.9308 79.9277C60.7123 79.9277 61.3458 79.2942 61.3458 78.5127C61.3458 77.7312 60.7123 77.0977 59.9308 77.0977C59.1493 77.0977 58.5157 77.7312 58.5157 78.5127C58.5157 79.2942 59.1493 79.9277 59.9308 79.9277Z" fill="#3F8BB5"/>
<path d="M65.9497 79.9277C66.7312 79.9277 67.3647 79.2942 67.3647 78.5127C67.3647 77.7312 66.7312 77.0977 65.9497 77.0977C65.1682 77.0977 64.5347 77.7312 64.5347 78.5127C64.5347 79.2942 65.1682 79.9277 65.9497 79.9277Z" fill="#3F8BB5"/>
<path d="M71.9683 79.9277C72.7498 79.9277 73.3833 79.2942 73.3833 78.5127C73.3833 77.7312 72.7498 77.0977 71.9683 77.0977C71.1868 77.0977 70.5532 77.7312 70.5532 78.5127C70.5532 79.2942 71.1868 79.9277 71.9683 79.9277Z" fill="#3F8BB5"/>
<path d="M77.9872 79.9277C78.7687 79.9277 79.4022 79.2942 79.4022 78.5127C79.4022 77.7312 78.7687 77.0977 77.9872 77.0977C77.2057 77.0977 76.5721 77.7312 76.5721 78.5127C76.5721 79.2942 77.2057 79.9277 77.9872 79.9277Z" fill="#3F8BB5"/>
<path d="M65.4604 21.4815H24.5398C22.8535 21.4815 21.4817 22.8533 21.4817 24.5396V41.4844C21.4817 42.2125 22.072 42.8027 22.8001 42.8027C23.5281 42.8027 24.1184 42.2125 24.1184 41.4844V24.5396C24.1184 24.3072 24.3076 24.1182 24.5398 24.1182H65.4604C65.6928 24.1182 65.8818 24.3072 65.8818 24.5396V41.4844C65.8818 42.2125 66.472 42.8027 67.2001 42.8027C67.9282 42.8027 68.5185 42.2125 68.5185 41.4844V24.5396C68.5185 22.8533 67.1467 21.4815 65.4604 21.4815Z" fill="#3F8BB5"/>
<path d="M67.2001 47.1973C66.472 47.1973 65.8818 47.7875 65.8818 48.5156V56.5641C65.8818 56.8821 65.7522 57.1929 65.5265 57.4167L57.3383 65.5339C57.112 65.7582 56.8118 65.8818 56.4931 65.8818H24.5396C24.3072 65.8818 24.1182 65.6928 24.1182 65.4604V48.5156C24.1182 47.7875 23.528 47.1973 22.7999 47.1973C22.0718 47.1973 21.4815 47.7875 21.4815 48.5156V65.4604C21.4815 67.1467 22.8535 68.5185 24.5396 68.5185H56.4931C57.5118 68.5185 58.4712 68.1235 59.1945 67.4063L67.3828 59.2891C68.1045 58.5737 68.5185 57.5803 68.5185 56.5641V48.5156C68.5185 47.7875 67.9284 47.1973 67.2001 47.1973Z" fill="#3F8BB5"/>
<path d="M88.6816 25.8073C89.4097 25.8073 90 25.2171 90 24.489C90 23.7609 89.4097 23.1706 88.6816 23.1706H84.8885V15.5519H88.6816C89.4097 15.5519 90 14.9616 90 14.2335C90 13.5054 89.4097 12.9152 88.6816 12.9152H84.8885V10.3219C84.8885 7.44891 82.5511 5.11154 79.6781 5.11154H77.0848V1.31836C77.0848 0.590273 76.4945 0 75.7665 0C75.0384 0 74.4481 0.590273 74.4481 1.31836V5.11154H66.8294V1.31836C66.8294 0.590273 66.2391 0 65.511 0C64.7829 0 64.1927 0.590273 64.1927 1.31836V5.11154H56.5738V1.31836C56.5738 0.590273 55.9835 0 55.2554 0C54.5273 0 53.9371 0.590273 53.9371 1.31836V5.11154H46.3184V1.31836C46.3184 0.590273 45.7281 0 45 0C44.2719 0 43.6816 0.590273 43.6816 1.31836V5.11154H36.0629V1.31836C36.0629 0.590273 35.4727 0 34.7446 0C34.0165 0 33.4262 0.590273 33.4262 1.31836V5.11154H25.8073V1.31836C25.8073 0.590273 25.2171 0 24.489 0C23.7609 0 23.1706 0.590273 23.1706 1.31836V5.11154H15.5519V1.31836C15.5519 0.590273 14.9616 0 14.2335 0C13.5054 0 12.9152 0.590273 12.9152 1.31836V5.11154H10.3219C7.44891 5.11154 5.11154 7.44891 5.11154 10.3219V12.9152H1.31836C0.590273 12.9152 0 13.5054 0 14.2335C0 14.9616 0.590273 15.5519 1.31836 15.5519H5.11154V23.1706H1.31836C0.590273 23.1706 0 23.7609 0 24.489C0 25.2171 0.590273 25.8073 1.31836 25.8073H5.11154V33.4262H1.31836C0.590273 33.4262 0 34.0165 0 34.7446C0 35.4727 0.590273 36.0629 1.31836 36.0629H5.11154V43.6816H1.31836C0.590273 43.6816 0 44.2719 0 45C0 45.7281 0.590273 46.3184 1.31836 46.3184H5.11154V53.9371H1.31836C0.590273 53.9371 0 54.5273 0 55.2554C0 55.9835 0.590273 56.5738 1.31836 56.5738H5.11154V64.1927H1.31836C0.590273 64.1927 0 64.7829 0 65.511C0 66.2391 0.590273 66.8294 1.31836 66.8294H5.11154V74.4481H1.31836C0.590273 74.4481 0 75.0384 0 75.7665C0 76.4945 0.590273 77.0848 1.31836 77.0848H5.11154V79.6781C5.11154 82.5511 7.44891 84.8885 10.3219 84.8885H12.9152V88.6816C12.9152 89.4097 13.5054 90 14.2335 90C14.9616 90 15.5519 89.4097 15.5519 88.6816V84.8885H23.1706V88.6816C23.1706 89.4097 23.7609 90 24.489 90C25.2171 90 25.8073 89.4097 25.8073 88.6816V84.8885H33.4262V88.6816C33.4262 89.4097 34.0165 90 34.7446 90C35.4727 90 36.0629 89.4097 36.0629 88.6816V84.8885H43.6816V88.6816C43.6816 89.4097 44.2719 90 45 90C45.7281 90 46.3184 89.4097 46.3184 88.6816V84.8885H53.9371V88.6816C53.9371 89.4097 54.5273 90 55.2554 90C55.9835 90 56.5738 89.4097 56.5738 88.6816V84.8885H64.1927V88.6816C64.1927 89.4097 64.7829 90 65.511 90C66.2391 90 66.8294 89.4097 66.8294 88.6816V84.8885H74.4481V88.6816C74.4481 89.4097 75.0384 90 75.7665 90C76.4945 90 77.0848 89.4097 77.0848 88.6816V84.8885H79.6781C82.5511 84.8885 84.8885 82.5511 84.8885 79.6781V77.0848H88.6816C89.4097 77.0848 90 76.4945 90 75.7665C90 75.0384 89.4097 74.4481 88.6816 74.4481H84.8885V66.8294H88.6816C89.4097 66.8294 90 66.2391 90 65.511C90 64.7829 89.4097 64.1927 88.6816 64.1927H84.8885V56.5738H88.6816C89.4097 56.5738 90 55.9835 90 55.2554C90 54.5273 89.4097 53.9371 88.6816 53.9371H84.8885V46.3184H88.6816C89.4097 46.3184 90 45.7281 90 45C90 44.2719 89.4097 43.6816 88.6816 43.6816H84.8885V36.0629H88.6816C89.4097 36.0629 90 35.4727 90 34.7446C90 34.0165 89.4097 33.4262 88.6816 33.4262H84.8885V25.8073H88.6816ZM82.2517 79.6788C82.2517 81.0979 81.0972 82.2524 79.6781 82.2524H10.3219C8.90279 82.2524 7.74826 81.0979 7.74826 79.6788V10.3219C7.74826 8.90279 8.90279 7.74826 10.3219 7.74826H79.6781C81.0972 7.74826 82.2517 8.90279 82.2517 10.3219V79.6788Z" fill="#3F8BB5"/>
</svg>
