<svg width="90" height="70" viewBox="0 0 90 70" fill="none" xmlns="http://www.w3.org/2000/svg">
<path d="M31.4375 27H28.3125L23.9375 19H22.9375L22.9688 27H20.5625V9.09375H29.8438V19H27.0938L31.4375 27ZM27.3438 16.75V11.3125H22.9375V16.75H27.3438ZM37.9688 11.3125V16.75H43V11.3125H37.9688ZM45.5 27H43V19H37.9688V27H35.5938V9.09375H45.5V27ZM60.5312 27H57.9688V11.3125H53V27H50.625V9.09375H67.9062V27H65.4062V11.3125H60.5312V27Z" fill="#3FB58B"/>
<path d="M88.5 44.16C89.3284 44.16 90 43.5511 90 42.8V37.36C90 36.6089 89.3284 36 88.5 36H1.5C0.671625 36 0 36.6089 0 37.36V42.8C0 43.5511 0.671625 44.16 1.5 44.16C2.32837 44.16 3 44.7689 3 45.52C3 46.2711 2.32837 46.88 1.5 46.88C0.671625 46.88 0 47.4889 0 48.24V64.56C0 65.3111 0.671625 65.92 1.5 65.92H3V68.64C3 69.3911 3.67162 70 4.5 70H31.5C32.3284 70 33 69.3911 33 68.64V65.92H36V68.64C36 69.3911 36.6716 70 37.5 70H85.5C86.3284 70 87 69.3911 87 68.64V65.92H88.5C89.3284 65.92 90 65.3111 90 64.56V48.24C90 47.4889 89.3284 46.88 88.5 46.88C87.6716 46.88 87 46.2711 87 45.52C87 44.7689 87.6716 44.16 88.5 44.16ZM30 67.28H6V65.92H30V67.28ZM84 67.28H39V65.92H84V67.28ZM87 41.6726C84.6564 42.4224 83.427 44.753 84.2541 46.8778C84.7071 48.0414 85.7166 48.9567 87 49.3674V63.2H3V49.3674C3.051 49.3511 3.096 49.3266 3.15 49.309C3.234 49.279 3.3135 49.245 3.3945 49.2097C3.56063 49.1393 3.72187 49.0597 3.8775 48.9717C3.951 48.9309 4.0275 48.8901 4.095 48.8452C4.27219 48.7311 4.44 48.6057 4.5975 48.4698C4.6305 48.4413 4.668 48.4168 4.6995 48.3882C4.88269 48.2201 5.04975 48.038 5.199 47.8442C5.2395 47.7898 5.274 47.73 5.313 47.6742C5.41594 47.5262 5.508 47.3722 5.589 47.2132C5.6265 47.1384 5.6595 47.0636 5.6925 46.9861C5.76056 46.8264 5.81681 46.6629 5.8605 46.4965C5.8815 46.4217 5.9055 46.3496 5.9205 46.2734C6.03206 45.7799 6.03206 45.271 5.9205 44.7774C5.9055 44.7013 5.8815 44.6292 5.8605 44.5544C5.81681 44.388 5.76056 44.2244 5.6925 44.0648C5.6595 43.9873 5.6265 43.9111 5.589 43.8363C5.50763 43.678 5.41556 43.5245 5.313 43.3766C5.274 43.3209 5.2395 43.261 5.199 43.2066C5.04975 43.0128 4.88269 42.8308 4.6995 42.6626C4.668 42.6341 4.6305 42.6096 4.5975 42.581C4.44 42.4452 4.27219 42.3197 4.095 42.2057C4.0245 42.1594 3.945 42.12 3.8775 42.0792C3.72187 41.9911 3.56063 41.9116 3.3945 41.8412C3.3135 41.8072 3.234 41.7718 3.15 41.7419C3.1005 41.7242 3.0555 41.6998 3 41.6834V38.72H87V41.6726Z" fill="#3FB58B"/>
<path d="M49.5 41.44H40.5C39.6716 41.44 39 42.0489 39 42.8V56.4C39 57.1511 39.6716 57.76 40.5 57.76H49.5C50.3284 57.76 51 57.1511 51 56.4V42.8C51 42.0489 50.3284 41.44 49.5 41.44ZM48 55.04H42V44.16H48V55.04Z" fill="#3FB58B"/>
<path d="M64.5 41.44H55.5C54.6716 41.44 54 42.0489 54 42.8V56.4C54 57.1511 54.6716 57.76 55.5 57.76H64.5C65.3284 57.76 66 57.1511 66 56.4V42.8C66 42.0489 65.3284 41.44 64.5 41.44ZM63 55.04H57V44.16H63V55.04Z" fill="#3FB58B"/>
<path d="M19.5 41.44H10.5C9.67163 41.44 9 42.0489 9 42.8V56.4C9 57.1511 9.67163 57.76 10.5 57.76H19.5C20.3284 57.76 21 57.1511 21 56.4V42.8C21 42.0489 20.3284 41.44 19.5 41.44ZM18 55.04H12V44.16H18V55.04Z" fill="#3FB58B"/>
<path d="M34.5 41.44H25.5C24.6716 41.44 24 42.0489 24 42.8V56.4C24 57.1511 24.6716 57.76 25.5 57.76H34.5C35.3284 57.76 36 57.1511 36 56.4V42.8C36 42.0489 35.3284 41.44 34.5 41.44ZM33 55.04H27V44.16H33V55.04Z" fill="#3FB58B"/>
<path d="M79.5 41.44H70.5C69.6716 41.44 69 42.0489 69 42.8V56.4C69 57.1511 69.6716 57.76 70.5 57.76H79.5C80.3284 57.76 81 57.1511 81 56.4V42.8C81 42.0489 80.3284 41.44 79.5 41.44ZM78 55.04H72V44.16H78V55.04Z" fill="#3FB58B"/>
</svg>
