<?xml version="1.0" standalone="no"?>
<!DOCTYPE svg PUBLIC "-//W3C//DTD SVG 1.1//EN" "http://www.w3.org/Graphics/SVG/1.1/DTD/svg11.dtd" >
<svg xmlns="http://www.w3.org/2000/svg">
<metadata>Generated by IcoMoon</metadata>
<defs>
<font id="icomoon" horiz-adv-x="1024">
<font-face units-per-em="1024" ascent="960" descent="-64" />
<missing-glyph horiz-adv-x="1024" />
<glyph unicode="&#x20;" horiz-adv-x="512" d="" />
<glyph unicode="&#xe900;" glyph-name="thermometer" d="M644.689 368.467v27.898h93.187v-27.898h-93.187zM644.689 457.851h93.187v-29.784h-93.187v29.784zM644.689 517.481h93.187v-29.815h-93.187v29.815zM644.689 578.997h93.187v-29.784l-93.187 1.886v27.898zM644.689 642.399h93.187v-31.701h-93.187v31.701zM644.689 701.999h93.187v-29.815h-93.187v29.815zM698.66 178.625c0-98.754-80.074-178.829-178.829-178.829s-178.829 80.074-178.829 178.829c0 67.722 35.747 126.592 91.24 156.954v398.151c0 49.377 41.923 89.384 91.301 89.384s89.414-40.007 89.414-89.384v-402.653c51.355-31.458 85.703-87.863 85.703-152.452zM583.173 313.036v420.694c0 32.918-26.681 59.599-59.599 59.599s-59.599-26.681-59.599-59.599v-417.135c-54.58-22.148-93.156-75.45-93.156-137.97 0-82.295 66.718-149.014 149.014-149.014s148.983 66.718 148.983 149.014c0.030 59.569-35.139 110.528-85.642 134.41zM519.831 59.396c-65.867 0-119.229 53.393-119.229 119.229 0 56.861 39.885 104.23 93.156 116.156v284.215h59.63v-286.527c49.377-14.573 85.672-59.752 85.672-113.844 0-65.836-53.363-119.229-119.229-119.229z" />
<glyph unicode="&#xe901;" glyph-name="ram" d="M378.595 435.817h19.109c6.273 0 11.172 1.67 14.698 5.010 3.528 3.392 5.292 8.012 5.292 13.861 0 6.109-1.644 10.832-4.926 14.171-3.235 3.341-8.085 5.064-14.552 5.168h-19.624v-38.209zM508.62 418.516l-15.51 47.291-15.51-47.291h31.018zM296.665 616.667v-380c0-13.994 11.341-25.335 25.335-25.335h380c13.994 0 25.335 11.341 25.335 25.335v380c0 13.994-11.341 25.335-25.335 25.335h-380c-13.994 0-25.335-11.341-25.335-25.335zM399.32 419.925h-20.726v-43.923h-18.595v114h37.631c12.347 0 21.879-2.95 28.59-8.846 6.715-5.9 10.070-14.431 10.070-25.603 0-7.621-1.739-14.013-5.217-19.181-3.43-5.117-8.233-9.055-14.407-11.824l24.035-47.527v-1.017h-19.922l-21.461 43.923zM472.382 402.545l-8.674-26.543h-19.333l40.424 114h16.685l40.499-114h-19.405l-8.748 26.543h-41.455zM609.169 402.622l30.796 87.379h24.035v-114h-18.522v37.582l1.837 50.265-31.607-87.847h-13.305l-31.531 87.771 1.835-50.189v-37.582h-18.52v114h24.106l30.87-87.379zM917.335 611.417c0-6.558-5.315-11.875-11.875-11.875h-34.168v-68.626h34.168c6.56 0 11.875-5.315 11.875-11.875 0-6.558-5.315-11.875-11.875-11.875h-34.168v-68.623h34.168c6.56 0 11.875-5.317 11.875-11.875s-5.315-11.875-11.875-11.875h-34.168v-68.625h34.168c6.56 0 11.875-5.315 11.875-11.875 0-6.558-5.315-11.875-11.875-11.875h-34.168v-68.625h34.168c6.56 0 11.875-5.317 11.875-11.875 0-6.56-5.315-11.875-11.875-11.875h-34.168v-68.625h34.168c6.56 0 11.875-5.315 11.875-11.875 0-6.558-5.315-11.875-11.875-11.875h-34.168v-23.361c0-25.878-21.054-46.932-46.932-46.932h-23.361v-34.168c0-6.56-5.317-11.875-11.875-11.875-6.56 0-11.875 5.315-11.875 11.875v34.168h-68.625v-34.168c0-6.56-5.315-11.875-11.875-11.875-6.558 0-11.875 5.315-11.875 11.875v34.168h-68.625v-34.168c0-6.56-5.317-11.875-11.875-11.875-6.56 0-11.875 5.315-11.875 11.875v34.168h-68.625v-34.168c0-6.56-5.317-11.875-11.875-11.875s-11.875 5.315-11.875 11.875v34.168h-68.623v-34.168c0-6.56-5.317-11.875-11.875-11.875-6.56 0-11.875 5.315-11.875 11.875v34.168h-68.626v-34.168c0-6.56-5.317-11.875-11.875-11.875-6.56 0-11.875 5.315-11.875 11.875v34.168h-68.625v-34.168c0-6.56-5.315-11.875-11.875-11.875s-11.875 5.315-11.875 11.875v34.168h-23.361c-25.878 0-46.932 21.054-46.932 46.932v23.361h-34.168c-6.559 0-11.875 5.317-11.875 11.875 0 6.56 5.316 11.875 11.875 11.875h34.168v68.625h-34.168c-6.559 0-11.875 5.315-11.875 11.875 0 6.558 5.316 11.875 11.875 11.875h34.168v68.625h-34.168c-6.559 0-11.875 5.317-11.875 11.875 0 6.56 5.316 11.875 11.875 11.875h34.168v68.625h-34.168c-6.559 0-11.875 5.317-11.875 11.875s5.316 11.875 11.875 11.875h34.168v68.623h-34.168c-6.559 0-11.875 5.317-11.875 11.875 0 6.56 5.316 11.875 11.875 11.875h34.168v68.626h-34.168c-6.559 0-11.875 5.317-11.875 11.875 0 6.56 5.316 11.875 11.875 11.875h34.168v68.625h-34.168c-6.559 0-11.875 5.315-11.875 11.875s5.316 11.875 11.875 11.875h34.168v23.361c0 25.878 21.054 46.932 46.932 46.932h23.361v34.168c0 6.559 5.316 11.875 11.875 11.875s11.875-5.316 11.875-11.875v-34.168h68.625v34.168c0 6.559 5.315 11.875 11.875 11.875 6.558 0 11.875-5.316 11.875-11.875v-34.168h68.626v34.168c0 6.559 5.315 11.875 11.875 11.875 6.558 0 11.875-5.316 11.875-11.875v-34.168h68.623v34.168c0 6.559 5.317 11.875 11.875 11.875s11.875-5.316 11.875-11.875v-34.168h68.625v34.168c0 6.559 5.315 11.875 11.875 11.875 6.558 0 11.875-5.316 11.875-11.875v-34.168h68.625v34.168c0 6.559 5.317 11.875 11.875 11.875 6.56 0 11.875-5.316 11.875-11.875v-34.168h68.625v34.168c0 6.559 5.315 11.875 11.875 11.875 6.558 0 11.875-5.316 11.875-11.875v-34.168h23.361c25.878 0 46.932-21.054 46.932-46.932v-23.361h34.168c6.56 0 11.875-5.316 11.875-11.875s-5.315-11.875-11.875-11.875h-34.168v-68.625h34.168c6.56 0 11.875-5.315 11.875-11.875zM824.36 91.117c12.781 0 23.182 10.401 23.182 23.182v624.728c0 12.781-10.401 23.182-23.182 23.182h-624.72c-12.781 0-23.182-10.401-23.182-23.182v-624.728c0-12.781 10.401-23.182 23.182-23.182h624.72z" />
<glyph unicode="&#xe902;" glyph-name="drive" horiz-adv-x="768" d="M680.579 617.177l-159.998 202.665c-3.003 3.806-6.761 6.867-11.011 8.966s-8.883 3.189-13.576 3.189h-64.002v-135.112h-64.002v135.112h-32.001v-135.112h-64.002v135.112h-32.001v-135.112h-64.002v135.112h-64.002c-8.485 0-16.627-3.56-22.627-9.892s-9.374-14.925-9.374-23.885v-743.109c0-8.959 3.373-17.55 9.374-23.885 6-6.337 14.142-9.894 22.627-9.894h543.998c8.485 0 16.63 3.558 22.627 9.894 6.004 6.335 9.375 14.925 9.375 23.885v540.443c0 7.901-2.625 15.552-7.42 21.622zM592.003 156.446c0-8.959-3.373-17.55-9.377-23.885-6.001-6.337-14.142-9.894-22.627-9.894h-352.001c-8.486 0-16.627 3.558-22.627 9.894s-9.374 14.925-9.374 23.885v337.774c0 8.959 3.373 17.548 9.374 23.885s14.142 9.892 22.627 9.892h352.001c8.486 0 16.627-3.56 22.627-9.892s9.377-14.925 9.377-23.885v-337.774zM272.001 392.891h224.001v-67.555h-224.001v67.555zM272.001 291.553h224.001v-67.555h-224.001v67.555z" />
<glyph unicode="&#xe903;" glyph-name="basestation" horiz-adv-x="768" d="M224.143 727.35c-20.523 19.157-20.523 50.21 0 69.366 6.839 6.379 6.839 16.736 0 23.122-6.839 6.379-17.936 6.379-24.779 0-34.217-31.93-34.217-83.697 0-115.626 6.847-6.379 17.944-6.379 24.787 0.008s6.839 16.745-0.008 23.13zM174.578 842.951c-0.003-0.002 0.002 0.002 0 0 6.961 6.273 7.161 16.635 0.44 23.13s-17.817 6.676-24.779 0.399c-0.146-0.131-0.284-0.261-0.431-0.399v0.016c-61.597-57.462-61.602-150.651-0.019-208.129 0.006-0.006 0.008-0.008 0.019-0.018 6.961-6.273 18.056-6.093 24.779 0.399 6.559 6.333 6.559 16.383 0 22.72-47.905 44.697-47.91 117.17-0.008 161.878zM125.035 889.219c6.961 6.273 7.154 16.626 0.431 23.122s-17.817 6.676-24.779 0.399c-0.146-0.131-0.284-0.261-0.431-0.399-88.833-83.069-88.833-217.565 0-300.636 6.961-6.273 18.056-6.093 24.779 0.399 6.559 6.333 6.559 16.383 0 22.719-75.16 70.294-75.16 184.095 0 254.388zM568.625 819.837c-6.724 6.494-17.817 6.676-24.778 0.399s-7.155-16.626-0.429-23.122c0.14-0.137 0.284-0.27 0.429-0.399 20.522-19.157 20.522-50.209 0-69.366-6.848-6.379-6.854-16.736-0.008-23.123 0.004-0.004 0.008-0.008 0.008-0.008 6.839-6.379 17.935-6.379 24.778 0 34.218 31.93 34.218 83.697 0 115.627zM618.202 866.090c-0.007 0.006-0.008 0.008-0.019 0.018-6.847 6.379-17.94 6.371-24.779-0.016-6.839-6.379-6.839-16.736 0-23.122 47.908-44.697 47.908-117.17 0.008-161.879 0.003 0.003-0.002-0.002 0 0-6.961-6.275-7.161-16.634-0.438-23.13s17.817-6.676 24.779-0.399c0.146 0.13 0.284 0.261 0.429 0.399 61.598 57.462 61.602 150.651 0.019 208.129zM667.746 912.342c-6.961 6.275-18.057 6.095-24.779-0.399-6.557-6.333-6.557-16.384 0-22.721 75.158-70.295 75.158-184.097 0-254.388-6.961-6.275-7.151-16.626-0.429-23.122s17.817-6.676 24.779-0.399c0.146 0.13 0.284 0.261 0.429 0.399 88.829 83.069 88.829 217.564 0 300.635zM629.333 328.453h-177.149l-48.906 395.298c37.22 9.933 58.761 46.142 48.116 80.874s-49.45 54.833-86.669 44.899c-37.22-9.933-58.761-46.144-48.116-80.874 6.655-21.714 24.847-38.69 48.116-44.899l-48.906-395.298h-177.149c-67.714-0.072-122.59-51.275-122.667-114.466v-163.515c0.077-63.186 54.953-114.387 122.667-114.466h490.667c67.712 0.074 122.587 51.275 122.667 114.466v163.515c-0.077 63.186-54.949 114.387-122.667 114.466zM348.952 786.315c0 18.063 15.69 32.704 35.048 32.704s35.048-14.636 35.048-32.704c0-18.063-15.69-32.705-35.048-32.705s-35.048 14.636-35.048 32.705zM384 594.585l32.909-266.132h-65.819l32.909 266.132zM716.954 50.471c-0.061-45.134-39.253-81.704-87.615-81.763h-490.667c-48.365 0.054-87.562 36.624-87.615 81.763v163.515c0.054 45.134 39.253 81.704 87.615 81.763h490.667c48.367-0.054 87.559-36.624 87.615-81.763v-163.515zM208.762 164.933h-70.089c-9.677 0-17.523-7.322-17.523-16.351v-130.818c0-9.034 7.847-16.351 17.523-16.351h70.089c9.677 0 17.523 7.317 17.523 16.351v130.818c0 9.024-7.847 16.351-17.523 16.351zM191.238 34.118h-35.047v98.115h35.047v-98.115zM348.952 197.636h-70.089c-9.677 0-17.523-7.322-17.523-16.351v-163.515c0-9.034 7.847-16.351 17.523-16.351h70.089c9.678 0 17.523 7.317 17.523 16.351v163.515c0 9.024-7.846 16.351-17.523 16.351zM331.429 34.118h-35.048v130.818h35.048v-130.818zM489.141 230.339h-70.089c-9.677 0-17.523-7.317-17.523-16.351v-196.221c0-9.034 7.847-16.351 17.523-16.351h70.089c9.677 0 17.523 7.317 17.523 16.351v196.221c0 9.034-7.847 16.351-17.523 16.351zM471.615 34.118h-35.047v163.515h35.047v-163.515zM629.333 263.048h-70.089c-9.677 0-17.523-7.322-17.523-16.358v-228.927c0-9.034 7.847-16.351 17.523-16.351h70.089c9.678 0 17.523 7.317 17.523 16.351v228.927c0 9.034-7.845 16.358-17.523 16.358zM611.81 34.118h-35.048v196.221h35.048v-196.221z" />
<glyph unicode="&#xe904;" glyph-name="cpu" d="M440.646 417.422c-5.88 0-10.727-1.586-11.072-6.507-0.521-6.664-1.903-16.98-17.646-16.98-11.938 0-18.512 5.873-18.512 18.251v44.279c-0.003 12.378 6.571 18.251 18.164 18.251 16.433 0 17.646-10.792 17.991-15.711 0.176-4.761 4.847-6.507 11.248-6.507 7.609 0 11.245 1.906 11.245 10.155 0 18.409-17.128 30.158-41.178 30.158-21.801 0-39.965-9.842-39.965-36.345v-44.279c0-26.507 17.991-36.345 39.792-36.345 24.22 0 41.35 12.222 41.35 31.426 0 8.094-3.634 10.155-11.417 10.155zM510.532 492.808h-34.776c-5.192 0-8.48-3.013-8.48-6.352v-103.162c0-4.284 5.538-6.507 11.245-6.507 5.537 0 11.245 2.225 11.245 6.507v36.819h19.377c22.838 0 40.654 10 40.654 36.030v0.953c0 26.027-17.299 35.71-39.268 35.71zM527.311 454.556c0-12.378-6.922-18.251-18.164-18.251h-19.377v38.408h19.377c11.245 0 18.164-5.873 18.164-18.251v-1.906zM634.919 492.808c-5.709 0-11.242-1.906-11.242-6.352v-74.276c0-12.378-7.095-18.249-19.028-18.249-11.941 0-19.032 5.869-19.032 18.249v74.276c0 4.446-5.709 6.352-11.242 6.352-5.709 0-11.248-1.906-11.248-6.352v-74.276c0-26.507 18.167-36.342 41.523-36.342 23.183 0 41.523 9.839 41.523 36.342v74.276c0 4.446-5.709 6.352-11.245 6.352zM212.75 718.507c7.039 0 12.745 5.708 12.745 12.745s-5.708 12.745-12.745 12.745c-7.039 0-12.745-5.708-12.745-12.745s5.708-12.745 12.745-12.745zM266.965 718.507c7.039 0 12.745 5.708 12.745 12.745s-5.708 12.745-12.745 12.745c-7.039 0-12.745-5.708-12.745-12.745s5.708-12.745 12.745-12.745zM321.191 718.507c7.039 0 12.745 5.708 12.745 12.745s-5.708 12.745-12.745 12.745c-7.039 0-12.745-5.708-12.745-12.745s5.708-12.745 12.745-12.745zM375.404 718.507c7.039 0 12.747 5.708 12.747 12.745s-5.709 12.745-12.747 12.745c-7.039 0-12.744-5.708-12.744-12.745s5.709-12.745 12.744-12.745zM429.619 718.507c7.039 0 12.747 5.708 12.747 12.745s-5.709 12.745-12.747 12.745c-7.039 0-12.744-5.708-12.744-12.745s5.709-12.745 12.744-12.745zM483.833 718.507c7.039 0 12.744 5.708 12.744 12.745s-5.709 12.745-12.744 12.745c-7.039 0-12.747-5.708-12.747-12.745s5.709-12.745 12.747-12.745zM538.047 718.507c7.039 0 12.744 5.708 12.744 12.745s-5.709 12.745-12.744 12.745c-7.039 0-12.747-5.708-12.747-12.745s5.709-12.745 12.747-12.745zM592.259 718.507c7.039 0 12.744 5.708 12.744 12.745s-5.706 12.745-12.744 12.745c-7.039 0-12.744-5.708-12.744-12.745s5.706-12.745 12.744-12.745zM646.488 718.507c7.039 0 12.744 5.708 12.744 12.745s-5.706 12.745-12.744 12.745c-7.039 0-12.744-5.708-12.744-12.745s5.709-12.745 12.744-12.745zM700.702 718.507c7.039 0 12.744 5.708 12.744 12.745s-5.706 12.745-12.744 12.745c-7.039 0-12.744-5.708-12.744-12.745s5.706-12.745 12.744-12.745zM754.913 718.507c7.039 0 12.744 5.708 12.744 12.745s-5.706 12.745-12.744 12.745c-7.039 0-12.744-5.708-12.744-12.745s5.706-12.745 12.744-12.745zM809.132 718.507c7.039 0 12.744 5.708 12.744 12.745s-5.709 12.745-12.744 12.745c-7.039 0-12.744-5.708-12.744-12.745s5.706-12.745 12.744-12.745zM212.75 663.597c7.039 0 12.745 5.708 12.745 12.745s-5.708 12.745-12.745 12.745c-7.039 0-12.745-5.708-12.745-12.745s5.708-12.745 12.745-12.745zM266.965 663.597c7.039 0 12.745 5.708 12.745 12.745s-5.708 12.745-12.745 12.745c-7.039 0-12.745-5.708-12.745-12.745s5.708-12.745 12.745-12.745zM321.191 663.597c7.039 0 12.745 5.708 12.745 12.745s-5.708 12.745-12.745 12.745c-7.039 0-12.745-5.708-12.745-12.745s5.708-12.745 12.745-12.745zM375.404 663.597c7.039 0 12.747 5.708 12.747 12.745s-5.709 12.745-12.747 12.745c-7.039 0-12.744-5.708-12.744-12.745s5.709-12.745 12.744-12.745zM429.619 663.597c7.039 0 12.747 5.708 12.747 12.745s-5.709 12.745-12.747 12.745c-7.039 0-12.744-5.708-12.744-12.745s5.709-12.745 12.744-12.745zM483.833 663.597c7.039 0 12.744 5.708 12.744 12.745s-5.709 12.745-12.744 12.745c-7.039 0-12.747-5.708-12.747-12.745s5.709-12.745 12.747-12.745zM538.047 663.597c7.039 0 12.744 5.708 12.744 12.745s-5.709 12.745-12.744 12.745c-7.039 0-12.747-5.708-12.747-12.745s5.709-12.745 12.747-12.745zM592.259 663.597c7.039 0 12.744 5.708 12.744 12.745s-5.706 12.745-12.744 12.745c-7.039 0-12.744-5.708-12.744-12.745s5.706-12.745 12.744-12.745zM646.488 663.597c7.039 0 12.744 5.708 12.744 12.745s-5.706 12.745-12.744 12.745c-7.039 0-12.744-5.708-12.744-12.745s5.709-12.745 12.744-12.745zM700.702 663.597c7.039 0 12.744 5.708 12.744 12.745s-5.706 12.745-12.744 12.745c-7.039 0-12.744-5.708-12.744-12.745s5.706-12.745 12.744-12.745zM754.913 663.597c7.039 0 12.744 5.708 12.744 12.745s-5.706 12.745-12.744 12.745c-7.039 0-12.744-5.708-12.744-12.745s5.706-12.745 12.744-12.745zM809.132 663.597c7.039 0 12.744 5.708 12.744 12.745s-5.709 12.745-12.744 12.745c-7.039 0-12.744-5.708-12.744-12.745s5.706-12.745 12.744-12.745zM212.75 608.197c7.039 0 12.745 5.708 12.745 12.745s-5.708 12.745-12.745 12.745c-7.039 0-12.745-5.708-12.745-12.745s5.708-12.745 12.745-12.745zM266.965 608.197c7.039 0 12.745 5.708 12.745 12.745s-5.708 12.745-12.745 12.745c-7.039 0-12.745-5.708-12.745-12.745s5.708-12.745 12.745-12.745zM754.913 608.197c7.039 0 12.744 5.708 12.744 12.745s-5.706 12.745-12.744 12.745c-7.039 0-12.744-5.708-12.744-12.745s5.706-12.745 12.744-12.745zM809.132 608.197c7.039 0 12.744 5.708 12.744 12.745s-5.709 12.745-12.744 12.745c-7.039 0-12.744-5.708-12.744-12.745s5.706-12.745 12.744-12.745zM212.75 553.286c7.039 0 12.745 5.709 12.745 12.747s-5.708 12.744-12.745 12.744-12.745-5.709-12.745-12.744c0-7.039 5.708-12.747 12.745-12.747zM266.965 553.286c7.039 0 12.745 5.709 12.745 12.747s-5.708 12.744-12.745 12.744-12.745-5.709-12.745-12.744c0-7.039 5.708-12.747 12.745-12.747zM754.913 553.286c7.039 0 12.744 5.709 12.744 12.747s-5.706 12.744-12.744 12.744-12.744-5.709-12.744-12.744c0-7.039 5.706-12.747 12.744-12.747zM809.132 553.286c7.039 0 12.744 5.709 12.744 12.747s-5.709 12.744-12.744 12.744c-7.039 0-12.744-5.709-12.744-12.744 0-7.039 5.706-12.747 12.744-12.747zM212.75 497.885c7.039 0 12.745 5.709 12.745 12.747s-5.708 12.744-12.745 12.744-12.745-5.709-12.745-12.744c0-7.039 5.708-12.747 12.745-12.747zM266.965 497.885c7.039 0 12.745 5.709 12.745 12.747s-5.708 12.744-12.745 12.744-12.745-5.709-12.745-12.744c0-7.039 5.708-12.747 12.745-12.747zM754.913 497.885c7.039 0 12.744 5.709 12.744 12.747s-5.706 12.744-12.744 12.744-12.744-5.709-12.744-12.744c0-7.039 5.706-12.747 12.744-12.747zM809.132 497.885c7.039 0 12.744 5.709 12.744 12.747s-5.709 12.744-12.744 12.744c-7.039 0-12.744-5.709-12.744-12.744 0-7.039 5.706-12.747 12.744-12.747zM212.75 442.975c7.039 0 12.745 5.709 12.745 12.747s-5.708 12.744-12.745 12.744-12.745-5.709-12.745-12.744c0-7.039 5.708-12.747 12.745-12.747zM266.965 442.975c7.039 0 12.745 5.709 12.745 12.747s-5.708 12.744-12.745 12.744-12.745-5.709-12.745-12.744c0-7.039 5.708-12.747 12.745-12.747zM754.913 442.975c7.039 0 12.744 5.709 12.744 12.747s-5.706 12.744-12.744 12.744-12.744-5.709-12.744-12.744c0-7.039 5.706-12.747 12.744-12.747zM809.132 442.975c7.039 0 12.744 5.709 12.744 12.747s-5.709 12.744-12.744 12.744c-7.039 0-12.744-5.709-12.744-12.744 0-7.039 5.706-12.747 12.744-12.747zM212.75 387.575c7.039 0 12.745 5.706 12.745 12.744s-5.708 12.744-12.745 12.744c-7.039 0-12.745-5.706-12.745-12.744s5.708-12.744 12.745-12.744zM266.965 387.575c7.039 0 12.745 5.706 12.745 12.744s-5.708 12.744-12.745 12.744c-7.039 0-12.745-5.706-12.745-12.744s5.708-12.744 12.745-12.744zM754.913 387.575c7.039 0 12.744 5.706 12.744 12.744s-5.706 12.744-12.744 12.744c-7.039 0-12.744-5.706-12.744-12.744s5.706-12.744 12.744-12.744zM809.132 387.575c7.039 0 12.744 5.706 12.744 12.744s-5.709 12.744-12.744 12.744c-7.039 0-12.744-5.706-12.744-12.744s5.706-12.744 12.744-12.744zM212.75 332.663c7.039 0 12.745 5.706 12.745 12.744s-5.708 12.744-12.745 12.744c-7.039 0-12.745-5.706-12.745-12.744s5.708-12.744 12.745-12.744zM266.965 332.663c7.039 0 12.745 5.706 12.745 12.744s-5.708 12.744-12.745 12.744c-7.039 0-12.745-5.706-12.745-12.744s5.708-12.744 12.745-12.744zM754.913 332.663c7.039 0 12.744 5.706 12.744 12.744s-5.706 12.744-12.744 12.744c-7.039 0-12.744-5.706-12.744-12.744s5.706-12.744 12.744-12.744zM809.132 332.663c7.039 0 12.744 5.706 12.744 12.744s-5.709 12.744-12.744 12.744c-7.039 0-12.744-5.706-12.744-12.744s5.706-12.744 12.744-12.744zM212.75 277.262c7.039 0 12.745 5.709 12.745 12.744 0 7.039-5.708 12.744-12.745 12.744s-12.745-5.706-12.745-12.744c0-7.039 5.708-12.744 12.745-12.744zM266.965 277.262c7.039 0 12.745 5.709 12.745 12.744 0 7.039-5.708 12.744-12.745 12.744s-12.745-5.706-12.745-12.744c0-7.039 5.708-12.744 12.745-12.744zM754.913 277.262c7.039 0 12.744 5.709 12.744 12.744 0 7.039-5.706 12.744-12.744 12.744s-12.744-5.706-12.744-12.744c0-7.039 5.706-12.744 12.744-12.744zM809.132 277.262c7.039 0 12.744 5.709 12.744 12.744 0 7.039-5.709 12.744-12.744 12.744-7.039 0-12.744-5.706-12.744-12.744s5.706-12.744 12.744-12.744zM212.75 222.368c7.039 0 12.745 5.709 12.745 12.744 0 7.039-5.708 12.747-12.745 12.747s-12.745-5.709-12.745-12.747c0-7.039 5.708-12.744 12.745-12.744zM266.965 222.368c7.039 0 12.745 5.709 12.745 12.744 0 7.039-5.708 12.747-12.745 12.747s-12.745-5.709-12.745-12.747c0-7.039 5.708-12.744 12.745-12.744zM754.913 222.368c7.039 0 12.744 5.709 12.744 12.744 0 7.039-5.706 12.747-12.744 12.747s-12.744-5.709-12.744-12.747c0-7.039 5.706-12.744 12.744-12.744zM809.132 222.368c7.039 0 12.744 5.709 12.744 12.744 0 7.039-5.709 12.747-12.744 12.747-7.039 0-12.744-5.709-12.744-12.747s5.706-12.744 12.744-12.744zM212.75 166.951c7.039 0 12.745 5.709 12.745 12.744 0 7.039-5.708 12.747-12.745 12.747s-12.745-5.709-12.745-12.747c0-7.039 5.708-12.744 12.745-12.744zM266.965 166.951c7.039 0 12.745 5.709 12.745 12.744 0 7.039-5.708 12.747-12.745 12.747s-12.745-5.709-12.745-12.747c0-7.039 5.708-12.744 12.745-12.744zM321.191 166.951c7.039 0 12.745 5.709 12.745 12.744 0 7.039-5.708 12.747-12.745 12.747s-12.745-5.709-12.745-12.747c0-7.039 5.708-12.744 12.745-12.744zM375.404 166.951c7.039 0 12.747 5.709 12.747 12.744 0 7.039-5.709 12.747-12.747 12.747s-12.744-5.709-12.744-12.747c0-7.039 5.709-12.744 12.744-12.744zM429.619 166.951c7.039 0 12.747 5.709 12.747 12.744 0 7.039-5.709 12.747-12.747 12.747s-12.744-5.709-12.744-12.747c0-7.039 5.709-12.744 12.744-12.744zM483.833 166.951c7.039 0 12.744 5.709 12.744 12.744 0 7.039-5.709 12.747-12.744 12.747-7.039 0-12.747-5.709-12.747-12.747s5.709-12.744 12.747-12.744zM538.047 166.951c7.039 0 12.744 5.709 12.744 12.744 0 7.039-5.709 12.747-12.744 12.747-7.039 0-12.747-5.709-12.747-12.747s5.709-12.744 12.747-12.744zM592.259 166.951c7.039 0 12.744 5.709 12.744 12.744 0 7.039-5.706 12.747-12.744 12.747s-12.744-5.709-12.744-12.747c0-7.039 5.706-12.744 12.744-12.744zM646.488 166.951c7.039 0 12.744 5.709 12.744 12.744 0 7.039-5.706 12.747-12.744 12.747s-12.744-5.709-12.744-12.747 5.709-12.744 12.744-12.744zM700.702 166.951c7.039 0 12.744 5.709 12.744 12.744 0 7.039-5.706 12.747-12.744 12.747s-12.744-5.709-12.744-12.747c0-7.039 5.706-12.744 12.744-12.744zM754.913 166.951c7.039 0 12.744 5.709 12.744 12.744 0 7.039-5.706 12.747-12.744 12.747s-12.744-5.709-12.744-12.747c0-7.039 5.706-12.744 12.744-12.744zM809.132 166.951c7.039 0 12.744 5.709 12.744 12.744 0 7.039-5.709 12.747-12.744 12.747-7.039 0-12.744-5.709-12.744-12.747s5.706-12.744 12.744-12.744zM212.75 112.055c7.039 0 12.745 5.709 12.745 12.747s-5.708 12.744-12.745 12.744-12.745-5.709-12.745-12.744c0-7.039 5.708-12.747 12.745-12.747zM266.965 112.055c7.039 0 12.745 5.709 12.745 12.747s-5.708 12.744-12.745 12.744-12.745-5.709-12.745-12.744c0-7.039 5.708-12.747 12.745-12.747zM321.191 112.055c7.039 0 12.745 5.709 12.745 12.747s-5.708 12.744-12.745 12.744-12.745-5.709-12.745-12.744c0-7.039 5.708-12.747 12.745-12.747zM375.404 112.055c7.039 0 12.747 5.709 12.747 12.747s-5.709 12.744-12.747 12.744c-7.039 0-12.744-5.709-12.744-12.744 0-7.039 5.709-12.747 12.744-12.747zM429.619 112.055c7.039 0 12.747 5.709 12.747 12.747s-5.709 12.744-12.747 12.744c-7.039 0-12.744-5.709-12.744-12.744 0-7.039 5.709-12.747 12.744-12.747zM483.833 112.055c7.039 0 12.744 5.709 12.744 12.747s-5.709 12.744-12.744 12.744c-7.039 0-12.747-5.709-12.747-12.744 0-7.039 5.709-12.747 12.747-12.747zM538.047 112.055c7.039 0 12.744 5.709 12.744 12.747s-5.709 12.744-12.744 12.744c-7.039 0-12.747-5.709-12.747-12.744 0-7.039 5.709-12.747 12.747-12.747zM592.259 112.055c7.039 0 12.744 5.709 12.744 12.747s-5.706 12.744-12.744 12.744-12.744-5.709-12.744-12.744c0-7.039 5.706-12.747 12.744-12.747zM646.488 112.055c7.039 0 12.744 5.709 12.744 12.747s-5.706 12.744-12.744 12.744c-7.039 0-12.744-5.709-12.744-12.744 0-7.039 5.709-12.747 12.744-12.747zM700.702 112.055c7.039 0 12.744 5.709 12.744 12.747s-5.706 12.744-12.744 12.744-12.744-5.709-12.744-12.744c0-7.039 5.706-12.747 12.744-12.747zM754.913 112.055c7.039 0 12.744 5.709 12.744 12.747s-5.706 12.744-12.744 12.744-12.744-5.709-12.744-12.744c0-7.039 5.706-12.747 12.744-12.747zM809.132 112.055c7.039 0 12.744 5.709 12.744 12.747s-5.709 12.744-12.744 12.744c-7.039 0-12.744-5.709-12.744-12.744 0-7.039 5.706-12.747 12.744-12.747zM696.294 638.509h-368.591c-15.19 0-27.544-12.358-27.544-27.544v-152.629c0-6.56 5.316-11.873 11.875-11.873s11.875 5.314 11.875 11.873v152.629c0 2.094 1.702 3.794 3.794 3.794h368.591c2.093 0 3.794-1.7 3.794-3.794v-152.629c0-6.56 5.317-11.873 11.877-11.873s11.873 5.314 11.873 11.873v152.629c0 15.19-12.356 27.544-27.544 27.544zM711.967 406.879c-6.56 0-11.877-5.317-11.877-11.877v-72.494c0-2.861-1.167-5.662-3.201-7.679l-73.755-73.115c-2.038-2.023-4.74-3.133-7.611-3.133h-287.819c-2.094 0-3.794 1.7-3.794 3.794v152.629c0 6.56-5.316 11.877-11.875 11.877s-11.875-5.317-11.875-11.877v-152.629c0-15.19 12.359-27.544 27.544-27.544h287.819c9.175 0 17.816 3.558 24.331 10.018l73.755 73.115c6.501 6.446 10.231 15.393 10.231 24.545v72.494c0 6.56-5.314 11.877-11.873 11.877zM905.458 599.542c6.56 0 11.877 5.316 11.877 11.875s-5.317 11.875-11.877 11.875h-34.165v68.624h34.165c6.56 0 11.877 5.316 11.877 11.875s-5.317 11.875-11.877 11.875h-34.165v23.36c0 25.878-21.055 46.932-46.933 46.932h-23.36v34.168c0 6.559-5.314 11.875-11.873 11.875s-11.877-5.316-11.877-11.875v-34.168h-68.622v34.168c0 6.559-5.317 11.875-11.877 11.875s-11.873-5.316-11.873-11.875v-34.168h-68.628v34.168c0 6.559-5.314 11.875-11.873 11.875s-11.877-5.316-11.877-11.875v-34.168h-68.622v34.168c0 6.559-5.317 11.875-11.877 11.875s-11.877-5.316-11.877-11.875v-34.168h-68.622v34.168c0 6.559-5.317 11.875-11.877 11.875-6.557 0-11.873-5.316-11.873-11.875v-34.168h-68.627v34.168c0 6.559-5.316 11.875-11.875 11.875s-11.875-5.316-11.875-11.875v-34.168h-68.624v34.168c0 6.559-5.316 11.875-11.875 11.875s-11.875-5.316-11.875-11.875v-34.168h-23.36c-25.878 0-46.932-21.054-46.932-46.932v-23.36h-34.168c-6.559 0-11.875-5.316-11.875-11.875s5.316-11.875 11.875-11.875h34.168v-68.624h-34.168c-6.559 0-11.875-5.316-11.875-11.875s5.316-11.875 11.875-11.875h34.168v-68.627h-34.168c-6.559 0-11.875-5.317-11.875-11.873 0-6.56 5.316-11.877 11.875-11.877h34.168v-68.622h-34.168c-6.559 0-11.875-5.317-11.875-11.877s5.316-11.877 11.875-11.877h34.168v-68.622h-34.168c-6.559 0-11.875-5.317-11.875-11.877s5.316-11.873 11.875-11.873h34.168v-68.628h-34.168c-6.559 0-11.875-5.314-11.875-11.873s5.316-11.877 11.875-11.877h34.168v-68.622h-34.168c-6.559 0-11.875-5.317-11.875-11.877s5.316-11.873 11.875-11.873h34.168v-23.36c0-25.878 21.054-46.933 46.932-46.933h23.36v-34.165c0-6.56 5.316-11.877 11.875-11.877s11.875 5.317 11.875 11.877v34.165h68.624v-34.165c0-6.56 5.316-11.877 11.875-11.877s11.875 5.317 11.875 11.877v34.165h68.627v-34.165c0-6.56 5.317-11.877 11.873-11.877 6.56 0 11.877 5.317 11.877 11.877v34.165h68.622v-34.165c0-6.56 5.317-11.877 11.877-11.877s11.877 5.317 11.877 11.877v34.165h68.622v-34.165c0-6.56 5.317-11.877 11.877-11.877s11.873 5.317 11.873 11.877v34.165h68.628v-34.165c0-6.56 5.314-11.877 11.873-11.877s11.877 5.317 11.877 11.877v34.165h68.622v-34.165c0-6.56 5.317-11.877 11.877-11.877s11.873 5.317 11.873 11.877v34.165h23.36c25.878 0 46.933 21.055 46.933 46.933v23.36h34.165c6.56 0 11.877 5.314 11.877 11.873s-5.317 11.877-11.877 11.877h-34.165v68.622h34.165c6.56 0 11.877 5.317 11.877 11.877s-5.317 11.873-11.877 11.873h-34.165v68.628h34.165c6.56 0 11.877 5.314 11.877 11.873s-5.317 11.877-11.877 11.877h-34.165v68.622h34.165c6.56 0 11.877 5.317 11.877 11.877s-5.317 11.877-11.877 11.877h-34.165v68.622h34.165c6.56 0 11.877 5.317 11.877 11.877 0 6.557-5.317 11.873-11.877 11.873h-34.165v68.627h34.165zM847.543 114.301c0-12.782-10.401-23.183-23.183-23.183h-624.72c-12.781 0-23.182 10.401-23.182 23.183v624.726c0 12.781 10.401 23.182 23.182 23.182h624.72c12.782 0 23.183-10.401 23.183-23.182v-624.726z" />
<glyph unicode="&#xe905;" glyph-name="dehaze" d="M86 704.667h852v-86h-852v86zM86 490.667h852v-86h-852v86zM86 276.667h852v-84h-852v84z" />
<glyph unicode="&#xe906;" glyph-name="layers" d="M512 256.667q-18 14-163 127t-221 171l384 298 384-298q-76-58-220-170t-164-128zM512 146.667l314 246 70-54-384-298-384 298 70 54z" />
<glyph unicode="&#xe907;" glyph-name="dashboard" d="M106.666 781.332c0 27.981 22.684 50.665 50.665 50.665h278.665c27.982 0 50.665-22.684 50.665-50.665v-278.665c0-27.982-22.683-50.665-50.665-50.665h-278.665c-27.981 0-50.665 22.683-50.665 50.665v278.665zM106.666 350.667c0 27.982 22.684 50.665 50.665 50.665h278.665c27.982 0 50.665-22.683 50.665-50.665v-278.665c0-27.982-22.683-50.665-50.665-50.665h-278.665c-27.981 0-50.665 22.683-50.665 50.665v278.665zM537.335 781.332c0 27.981 22.683 50.665 50.665 50.665h278.665c27.982 0 50.665-22.684 50.665-50.665v-278.665c0-27.982-22.683-50.665-50.665-50.665h-278.665c-27.982 0-50.665 22.683-50.665 50.665v278.665zM537.335 350.667c0 27.982 22.683 50.665 50.665 50.665h278.665c27.982 0 50.665-22.683 50.665-50.665v-278.665c0-27.982-22.683-50.665-50.665-50.665h-278.665c-27.982 0-50.665 22.683-50.665 50.665v278.665z" />
<glyph unicode="&#xe908;" glyph-name="dashboard-outlined" d="M405.332 799.999c14.73 0 26.668-11.939 26.668-26.668v-240c0-14.73-11.938-26.668-26.668-26.668h-240c-14.729 0-26.668 11.938-26.668 26.668v240c0 14.729 11.939 26.668 26.668 26.668h240zM485.332 79.999c0-44.185-35.815-80-80-80h-240c-44.183 0-80 35.815-80 80v240c0 44.185 35.817 80 80 80h240c44.185 0 80-35.815 80-80v-240zM485.332 533.335v240c0 44.183-35.815 80-80 80h-240c-44.183 0-80-35.817-80-80v-240c0-44.185 35.817-80 80-80h240c44.185 0 80 35.815 80 80zM405.332 346.667h-240c-14.729 0-26.668-11.938-26.668-26.668v-240c0-14.73 11.939-26.668 26.668-26.668h240c14.73 0 26.668 11.938 26.668 26.668v240c0 14.73-11.938 26.668-26.668 26.668zM858.668 799.999h-240c-14.73 0-26.668-11.939-26.668-26.668v-240c0-14.73 11.938-26.668 26.668-26.668h240c14.73 0 26.668 11.938 26.668 26.668v240c0 14.729-11.938 26.668-26.668 26.668zM858.668 346.667c14.73 0 26.668-11.938 26.668-26.668v-240c0-14.73-11.938-26.668-26.668-26.668h-240c-14.73 0-26.668 11.938-26.668 26.668v240c0 14.73 11.938 26.668 26.668 26.668h240zM538.668 773.335c0 44.183 35.815 80 80 80h240c44.185 0 80-35.817 80-80v-240c0-44.185-35.815-80-80-80h-240c-44.185 0-80 35.815-80 80v240zM618.668 399.999c-44.185 0-80-35.815-80-80v-240c0-44.185 35.815-80 80-80h240c44.185 0 80 35.815 80 80v240c0 44.185-35.815 80-80 80h-240z" />
<glyph unicode="&#xe909;" glyph-name="database-outlined" horiz-adv-x="864" d="M427.563 853.335c-199.361 0-355.555-70.292-355.555-160s156.194-160 355.555-160c199.36 0 355.554 70.292 355.554 160s-156.194 160-355.554 160zM427.563 568.889c-188.588 0-320.001 65.6-320.001 124.446s131.412 124.446 320.001 124.446c188.588 0 320-65.6 320-124.446s-131.412-124.446-320-124.446zM765.335 533.335c-9.812 0-17.778-7.966-17.778-17.778 0-58.846-131.412-124.446-320-124.446s-320.001 65.6-320.001 124.446c0 9.812-7.966 17.778-17.778 17.778s-17.778-7.966-17.778-17.778c0-89.708 156.194-160 355.554-160s355.554 70.292 355.554 160c0.003 9.812-7.96 17.778-17.772 17.778zM765.335 355.558c-9.812 0-17.778-7.966-17.778-17.778 0-58.843-131.412-124.443-320-124.443s-320.001 65.6-320.001 124.446c0 9.812-7.966 17.778-17.778 17.778s-17.778-7.966-17.778-17.778c0-89.708 156.194-160 355.554-160s355.554 70.292 355.554 160c0.003 9.812-7.96 17.775-17.772 17.775zM765.338 711.116c-9.812 0-17.775-7.968-17.775-17.78v-533.329c0-58.846-131.412-124.446-320-124.446s-320.001 65.6-320.001 124.446v533.329c0 9.812-7.966 17.78-17.778 17.78s-17.776-7.968-17.776-17.78v-533.329c0-89.708 156.194-160 355.555-160s355.554 70.292 355.554 160v533.329c0 9.812-7.966 17.78-17.778 17.78z" />
<glyph unicode="&#xe90a;" glyph-name="graph-outlined" d="M858.668 799.999c14.73 0 26.668-11.939 26.668-26.668v-693.332c0-14.73-11.938-26.668-26.668-26.668h-693.332c-14.729 0-26.668 11.938-26.668 26.668v693.332c0 14.729 11.939 26.668 26.668 26.668h693.332zM165.332 853.335c-44.183 0-80-35.817-80-80v-693.332c0-44.185 35.817-80 80-80h693.332c44.185 0 80 35.815 80 80v693.332c0 44.183-35.815 80-80 80h-693.332zM308.439 512.002c-19.638-29.83-31.936-66.468-37.001-90.775-3.004-14.415-17.128-23.67-31.546-20.668-14.417 3.006-23.67 17.13-20.669 31.548 6.048 29.025 20.415 72.388 44.667 109.225 23.941 36.366 61.529 72.003 114.773 72.003s90.83-35.637 114.772-72.003c24.25-36.837 38.618-80.2 44.665-109.225 5.065-24.31 17.363-60.948 37.003-90.775 19.948-30.302 43.47-47.997 70.228-47.997s50.277 17.695 70.228 47.997c19.637 29.83 31.935 66.468 37 90.775 3.003 14.415 17.126 23.67 31.545 20.668 14.418-3.006 23.67-17.13 20.668-31.548-6.046-29.025-20.415-72.388-44.665-109.225-23.942-36.366-61.53-72.003-114.772-72.003s-90.834 35.637-114.772 72.003c-24.25 36.837-38.622 80.2-44.668 109.225-5.065 24.31-17.363 60.948-37 90.775-19.95 30.302-43.47 47.997-70.228 47.997s-50.28-17.695-70.229-47.997z" />
<glyph unicode="&#xe90b;" glyph-name="database" d="M512.336 302.032c-0.888 0-1.776 0-2.664 0-210.77 0-381.244 51.192-381.292 90.504l-0.384 154.392c0 0.24 0.096 0.456 0.096 0.648 34.704-16.464 75.48-24.048 99.864-28.584 75.768-14.088 175.848-21.864 281.716-21.864h2.664c106.536 0.12 207.193 8.088 283.516 22.416 24.408 4.584 65.040 12.216 99.768 28.584 0-0.072 0-0.216 0-0.216l0.408-154.392c0.048-39.48-171.672-91.2-383.692-91.488zM512.336 543.616c-0.888 0-1.776 0-2.664 0-210.77 0-381.244 46.704-381.292 86.016l-0.384 130.416c-0.072 39.456 171.744 71.688 383.764 71.952 0.936 0 1.824 0 2.76 0 210.698 0 381.052-31.68 381.1-70.992l0.408-130.416c0.048-39.456-171.672-86.688-383.692-86.976zM509.648 255.519h2.664c106.536 0.144 207.217 12.576 283.516 26.904 24.408 4.584 65.040 12.216 99.792 28.608l0.384-175.104c0.048-39.48-171.672-71.688-383.692-71.952-0.912 0-1.776 0-2.712 0-210.722 0-381.196 31.68-381.244 70.968l-0.36 175.56c34.704-16.488 75.504-24.072 99.936-28.608 75.768-14.112 175.824-26.376 281.716-26.376z" />
<glyph unicode="&#xe90c;" glyph-name="graph" d="M200 832h624c39.765 0 72-32.237 72-72v-624c0-39.765-32.235-72-72-72h-624c-39.763 0-72 32.235-72 72v624c0 39.763 32.237 72 72 72zM295.495 443.104c4.557 21.879 15.626 54.852 33.301 81.699 17.954 27.271 39.125 43.197 63.204 43.197s45.252-15.927 63.204-43.197c17.673-26.847 28.743-59.82 33.3-81.699 5.443-26.121 18.375-65.148 40.2-98.301 21.547-32.729 55.375-64.803 103.296-64.803s81.751 32.073 103.296 64.803c21.825 33.153 34.759 72.18 40.2 98.301 2.703 12.979-5.625 25.685-18.6 28.392-12.977 2.703-25.687-5.625-28.392-18.6-4.557-21.879-15.627-54.852-33.3-81.699-17.952-27.269-39.125-43.197-63.204-43.197s-45.252 15.927-63.204 43.197c-17.673 26.847-28.743 59.82-33.3 81.699-5.441 26.121-18.375 65.148-40.2 98.301-21.545 32.729-55.375 64.803-103.296 64.803s-81.751-32.073-103.296-64.803c-21.824-33.153-34.757-72.18-40.199-98.301-2.704-12.979 5.623-25.687 18.601-28.392 12.977-2.703 25.685 5.625 28.39 18.6z" />
<glyph unicode="&#xe90d;" glyph-name="map-outlined" d="M806.828 347.917h-198.125l103.184 164.636c23.735 37.644 36.285 81.171 36.285 125.864 0 130.266-105.984 236.25-236.25 236.25-130.274 0-236.25-105.984-236.25-236.25 0-44.694 12.545-88.217 36.244-125.801l103.224-164.698h-198.133l-153.001-369.251h895.827zM672.194 137.917h164.82l44.237-106.751h-195.446zM632.873 31.166h-242.177l13.268 106.751h215.304zM815.263 190.417h-149.762l-13.386 105h119.636zM328.168 638.418c0 101.322 82.428 183.75 183.75 183.75 101.315 0 183.75-82.428 183.75-183.75 0-34.766-9.749-68.605-28.235-97.917l-155.516-248.151-155.558 248.207c-18.444 29.259-28.193 63.095-28.193 97.864zM511.918 193.487l63.882 101.93h23.392l13.386-105h-202.092l13.056 105h24.494zM252.076 295.417h118.562l-13.056-105h-149.017zM186.814 137.917h164.248l-13.276-106.751h-195.206zM643.168 638.418c0 72.373-58.877 131.25-131.25 131.25s-131.25-58.877-131.25-131.25 58.877-131.25 131.25-131.25 131.25 58.877 131.25 131.25zM433.168 638.418c0 43.421 35.329 78.75 78.75 78.75s78.75-35.329 78.75-78.75-35.329-78.75-78.75-78.75-78.75 35.329-78.75 78.75z" />
<glyph unicode="&#xe90e;" glyph-name="map" d="M512 743.418c-43.421 0-78.75-35.329-78.75-78.75s35.329-78.75 78.75-78.75 78.75 35.329 78.75 78.75-35.329 78.75-78.75 78.75zM512 874.668c-115.794 0-210-94.206-210-210 0-39.71 11.149-78.395 32.251-111.871l177.749-283.63 177.749 283.63c21.102 33.476 32.251 72.161 32.251 111.871 0 115.794-94.206 210-210 210zM512 533.418c-72.365 0-131.25 58.885-131.25 131.25s58.885 131.25 131.25 131.25 131.25-58.885 131.25-131.25-58.885-131.25-131.25-131.25zM384.244-21.334h255.425l-20.187 159.251h-215.557zM410.486 190.417h89.099l-74.354 117.926zM665.699 190.417h206.808l-65.625 157.5h-161.383zM151.493 190.417h206.089l19.688 157.5h-160.153zM524.415 190.417h88.335l-14.922 116.415zM351.021 137.917h-221.402l-65.617-159.251h267.341zM894.381 137.917h-221.957l20.192-159.251h267.382z" />
<glyph unicode="&#xe910;" glyph-name="chip-outlined" d="M714.076 654.817h-404.15c-14.34 0-26.074-11.733-26.074-26.074v-404.15c0-14.34 11.733-26.074 26.074-26.074h404.15c14.34 0 26.074 11.733 26.074 26.074v404.148c0 14.34-11.733 26.076-26.074 26.076zM688 250.667h-352.001v97.779h52.149c14.34 0 26.074 11.733 26.074 26.074s-11.733 26.074-26.074 26.074h-52.149v52.149h104.297c14.34 0 26.074 11.733 26.074 26.074s-11.733 26.074-26.074 26.074h-104.297v97.779h352.001v-351.998zM981.334 494.461c0 14.34-11.733 26.074-26.074 26.074h-83.437v82.133h83.437c14.34 0 26.074 11.733 26.074 26.074s-11.733 26.074-26.074 26.074h-83.437v56.062c0 41.719-33.897 75.614-75.614 75.614h-56.060v83.439c0 14.34-11.733 26.074-26.074 26.074s-26.074-11.733-26.074-26.074v-83.437h-83.439v83.437c0 14.34-11.733 26.074-26.074 26.074s-26.074-11.733-26.074-26.074v-83.437h-83.437v83.437c0 14.34-11.733 26.074-26.074 26.074s-26.074-11.733-26.074-26.074v-83.437h-80.83v83.437c-0.002 14.34-11.735 26.074-26.076 26.074s-26.074-11.733-26.074-26.074v-83.437h-56.060c-41.719 0-75.614-33.897-75.614-75.614v-56.060h-83.439c-14.34 0-26.074-11.735-26.074-26.076s11.733-26.074 26.074-26.074h83.437v-83.437h-83.437c-14.34 0-26.074-11.733-26.074-26.074s11.733-26.074 26.074-26.074h83.437v-83.437h-83.437c-14.34 0-26.074-11.735-26.074-26.076s11.733-26.074 26.074-26.074h83.437v-80.83h-83.437c-14.34 0-26.074-11.733-26.074-26.076 0-14.34 11.733-26.074 26.074-26.074h83.437v-56.060c0-41.719 33.897-75.614 75.614-75.614h56.060v-83.437c0-14.34 11.733-26.074 26.074-26.074s26.074 11.733 26.074 26.074v83.437h83.437v-83.437c0-14.34 11.733-26.074 26.074-26.074s26.074 11.733 26.074 26.074v83.437h83.437v-83.437c0-14.34 11.733-26.074 26.074-26.074s26.074 11.733 26.074 26.074v83.437h80.83v-83.437c0-14.34 11.733-26.074 26.074-26.074s26.074 11.733 26.074 26.074v83.437h56.060c41.719 0 75.614 33.897 75.614 75.614v56.060h83.437c14.34 0 26.074 11.733 26.074 26.074s-11.733 26.074-26.074 26.074h-83.437v83.439h83.437c14.34 0 26.074 11.733 26.074 26.074s-11.733 26.074-26.074 26.074h-83.437v83.437h83.437v-1.303c14.346 0 26.080 11.733 26.080 26.074zM820.98 142.459h-1.303c0-13.037-10.43-23.467-23.467-23.467h-568.415c-13.037 0-23.467 10.43-23.467 23.467v568.415c0 13.037 10.43 23.467 23.467 23.467h569.72c13.037 0 23.467-10.43 23.467-23.467v-568.415z" />
<glyph unicode="&#xe911;" glyph-name="cog-outlined" d="M556.913 741.053l38.4-153.6 152.207 43.609 67.414-116.772-113.853-109.991 113.853-110.080-67.368-116.772-152.253 43.609-38.4-153.689h-134.737l-38.4 153.689-152.253-43.609-67.414 116.772 113.853 110.080-113.807 109.991 67.368 116.772 152.253-43.609 38.4 153.6h134.737zM556.913 830.878h-134.737c-41.229 0-77.159-28.071-87.085-68.087l-15.899-63.416-62.877 17.965c-8.264 2.38-16.573 3.503-24.792 3.503-31.439 0-61.44-16.618-77.743-44.913l-67.368-116.772c-20.615-35.751-14.237-80.932 15.36-109.496l47.023-45.406-47.068-45.586c-29.642-28.609-36.020-73.791-15.405-109.496l67.458-116.772c16.303-28.34 46.304-44.913 77.743-44.913 8.219 0 16.527 1.123 24.792 3.414l62.833 18.009 15.899-63.551c9.971-39.747 45.9-67.818 87.129-67.818h134.737c41.229 0 77.159 28.071 87.085 68.087l15.899 63.506 62.833-17.965c8.264-2.38 16.573-3.458 24.792-3.458 31.439 0 61.44 16.618 77.743 44.913l67.368 116.772c20.615 35.751 14.237 80.842-15.36 109.496l-47.023 45.496 47.023 45.496c29.642 28.609 35.975 73.836 15.36 109.496l-67.368 116.772c-16.393 28.34-46.304 44.913-77.788 44.913-8.264 0-16.527-1.123-24.746-3.414l-62.877-18.009-15.899 63.461c-9.881 39.702-45.811 67.773-87.040 67.773zM489.544 494.035c49.583 0 89.824-40.197 89.824-89.824 0-49.583-40.241-89.824-89.824-89.824s-89.824 40.241-89.824 89.824c0 49.628 40.241 89.824 89.824 89.824zM489.544 538.948c-74.285 0-134.737-60.452-134.737-134.737s60.452-134.737 134.737-134.737 134.737 60.452 134.737 134.737-60.452 134.737-134.737 134.737z" />
<glyph unicode="&#xe912;" glyph-name="chip" d="M714.056 654.822h-404.138c-14.34 0-26.073-11.733-26.073-26.073v-404.138c0-14.34 11.733-26.073 26.073-26.073h404.138c14.34 0 26.073 11.733 26.073 26.073v404.136c0 14.34-11.733 26.075-26.073 26.075zM981.306 494.47c0 14.34-11.733 26.073-26.073 26.073h-83.434v82.131h83.434c14.34 0 26.073 11.733 26.073 26.073s-11.733 26.073-26.073 26.073h-83.434v56.060c0 41.718-33.896 75.612-75.612 75.612h-56.058v83.436c0 14.34-11.733 26.073-26.073 26.073s-26.073-11.733-26.073-26.073v-83.434h-83.436v83.434c0 14.34-11.733 26.073-26.073 26.073s-26.073-11.733-26.073-26.073v-83.434h-83.434v83.434c0 14.34-11.733 26.073-26.073 26.073s-26.073-11.733-26.073-26.073v-83.434h-80.828v83.434c-0.002 14.34-11.735 26.073-26.075 26.073s-26.073-11.733-26.073-26.073v-83.434h-56.058c-41.718 0-75.612-33.896-75.612-75.612v-56.058h-83.436c-14.34 0-26.073-11.735-26.073-26.075s11.733-26.073 26.073-26.073h83.434v-83.434h-83.434c-14.34 0-26.073-11.733-26.073-26.073s11.733-26.073 26.073-26.073h83.434v-83.434h-83.434c-14.34 0-26.073-11.735-26.073-26.075s11.733-26.073 26.073-26.073h83.434v-80.828h-83.434c-14.34 0-26.073-11.733-26.073-26.075 0-14.34 11.733-26.073 26.073-26.073h83.434v-56.058c0-41.718 33.895-75.612 75.612-75.612h56.058v-83.434c0-14.34 11.733-26.073 26.073-26.073s26.073 11.733 26.073 26.073v83.434h83.434v-83.434c0-14.34 11.733-26.073 26.073-26.073s26.073 11.733 26.073 26.073v83.434h83.434v-83.434c0-14.34 11.733-26.073 26.073-26.073s26.073 11.733 26.073 26.073v83.434h80.828v-83.434c0-14.34 11.733-26.073 26.073-26.073s26.073 11.733 26.073 26.073v83.434h56.058c41.718 0 75.612 33.896 75.612 75.612v56.058h83.434c14.34 0 26.073 11.733 26.073 26.073s-11.733 26.073-26.073 26.073h-83.434v83.436h83.434c14.34 0 26.073 11.733 26.073 26.073s-11.733 26.073-26.073 26.073h-83.434v83.434h83.434v-1.303c14.346 0 26.079 11.733 26.079 26.073zM819.653 142.48c0-13.036-10.43-23.466-23.466-23.466h-568.398c-13.036 0-23.466 10.43-23.466 23.466v568.398c0 13.036 10.43 23.466 23.466 23.466h569.703c13.036 0 23.466-10.43 23.466-23.466v-568.398h-1.305z" />
<glyph unicode="&#xe92e;" glyph-name="stack" d="M1024 640l-512 256-512-256 512-256 512 256zM512 811.030l342.058-171.030-342.058-171.030-342.058 171.030 342.058 171.030zM921.444 499.278l102.556-51.278-512-256-512 256 102.556 51.278 409.444-204.722zM921.444 307.278l102.556-51.278-512-256-512 256 102.556 51.278 409.444-204.722z" />
<glyph unicode="&#xe960;" glyph-name="download" d="M512 384l256 256h-192v256h-128v-256h-192zM744.726 488.728l-71.74-71.742 260.080-96.986-421.066-157.018-421.066 157.018 260.080 96.986-71.742 71.742-279.272-104.728v-256l512-192 512 192v256z" />
<glyph unicode="&#xe961;" glyph-name="upload" d="M448 384h128v256h192l-256 256-256-256h192zM640 528v-98.712l293.066-109.288-421.066-157.018-421.066 157.018 293.066 109.288v98.712l-384-144v-256l512-192 512 192v256z" />
<glyph unicode="&#xe992;" glyph-name="equalizer" d="M448 832v16c0 26.4-21.6 48-48 48h-160c-26.4 0-48-21.6-48-48v-16h-192v-128h192v-16c0-26.4 21.6-48 48-48h160c26.4 0 48 21.6 48 48v16h576v128h-576zM256 704v128h128v-128h-128zM832 528c0 26.4-21.6 48-48 48h-160c-26.4 0-48-21.6-48-48v-16h-576v-128h576v-16c0-26.4 21.6-48 48-48h160c26.4 0 48 21.6 48 48v16h192v128h-192v16zM640 384v128h128v-128h-128zM448 208c0 26.4-21.6 48-48 48h-160c-26.4 0-48-21.6-48-48v-16h-192v-128h192v-16c0-26.4 21.6-48 48-48h160c26.4 0 48 21.6 48 48v16h576v128h-576v16zM256 64v128h128v-128h-128z" />
<glyph unicode="&#xe994;" glyph-name="cog" d="M881.066 362.032c-47.010 81.422-18.74 185.766 63.134 233.177l-88.048 152.506c-25.156-14.748-54.404-23.204-85.616-23.204-94.094 0-170.37 76.778-170.37 171.492h-176.099c0.232-29.234-7.064-58.872-22.714-85.97-47.008-81.424-151.512-109.114-233.504-61.914l-88.046-152.506c25.348-14.414 47.294-35.514 62.9-62.544 46.934-81.294 18.824-185.43-62.744-232.946l88.048-152.506c25.068 14.61 54.176 22.972 85.226 22.972 93.796 0 169.876-76.294 170.362-170.588h176.098c-0.076 28.94 7.238 58.248 22.72 85.066 46.932 81.292 151.18 109.020 233.112 62.136l88.048 152.504c-25.182 14.408-46.98 35.436-62.504 62.324zM512 266.584c-100.194 0-181.419 81.222-181.419 181.418 0 100.194 81.222 181.418 181.419 181.418 100.194 0 181.416-81.222 181.416-181.418-0.002-100.196-81.222-181.418-181.416-181.418z" />
<glyph unicode="&#xe9ac;" glyph-name="bin" d="M128 640v-640c0-35.2 28.8-64 64-64h576c35.2 0 64 28.8 64 64v640h-704zM320 64h-64v448h64v-448zM448 64h-64v448h64v-448zM576 64h-64v448h64v-448zM704 64h-64v448h64v-448zM848 832h-208v80c0 26.4-21.6 48-48 48h-224c-26.4 0-48-21.6-48-48v-80h-208c-26.4 0-48-21.6-48-48v-80h832v80c0 26.4-21.6 48-48 48zM576 832h-192v63.198h192v-63.198z" />
<glyph unicode="&#xea0a;" glyph-name="plus" d="M992 576h-352v352c0 17.672-14.328 32-32 32h-192c-17.672 0-32-14.328-32-32v-352h-352c-17.672 0-32-14.328-32-32v-192c0-17.672 14.328-32 32-32h352v-352c0-17.672 14.328-32 32-32h192c17.672 0 32 14.328 32 32v352h352c17.672 0 32 14.328 32 32v192c0 17.672-14.328 32-32 32z" />
<glyph unicode="&#xea0b;" glyph-name="minus" d="M0 544v-192c0-17.672 14.328-32 32-32h960c17.672 0 32 14.328 32 32v192c0 17.672-14.328 32-32 32h-960c-17.672 0-32-14.328-32-32z" />
<glyph unicode="&#xea0f;" glyph-name="cross" d="M1014.662 137.34c-0.004 0.004-0.008 0.008-0.012 0.010l-310.644 310.65 310.644 310.65c0.004 0.004 0.008 0.006 0.012 0.010 3.344 3.346 5.762 7.254 7.312 11.416 4.246 11.376 1.824 24.682-7.324 33.83l-146.746 146.746c-9.148 9.146-22.45 11.566-33.828 7.32-4.16-1.55-8.070-3.968-11.418-7.31 0-0.004-0.004-0.006-0.008-0.010l-310.648-310.652-310.648 310.65c-0.004 0.004-0.006 0.006-0.010 0.010-3.346 3.342-7.254 5.76-11.414 7.31-11.38 4.248-24.682 1.826-33.83-7.32l-146.748-146.748c-9.148-9.148-11.568-22.452-7.322-33.828 1.552-4.16 3.97-8.072 7.312-11.416 0.004-0.002 0.006-0.006 0.010-0.010l310.65-310.648-310.65-310.652c-0.002-0.004-0.006-0.006-0.008-0.010-3.342-3.346-5.76-7.254-7.314-11.414-4.248-11.376-1.826-24.682 7.322-33.83l146.748-146.746c9.15-9.148 22.452-11.568 33.83-7.322 4.16 1.552 8.070 3.97 11.416 7.312 0.002 0.004 0.006 0.006 0.010 0.010l310.648 310.65 310.648-310.65c0.004-0.002 0.008-0.006 0.012-0.008 3.348-3.344 7.254-5.762 11.414-7.314 11.378-4.246 24.684-1.826 33.828 7.322l146.746 146.748c9.148 9.148 11.57 22.454 7.324 33.83-1.552 4.16-3.97 8.068-7.314 11.414z" />
<glyph unicode="&#xea10;" glyph-name="checkmark" d="M864 832l-480-480-224 224-160-160 384-384 640 640z" />
<glyph unicode="&#xea1c;" glyph-name="play3" d="M192 832l640-384-640-384z" />
<glyph unicode="&#xea1d;" glyph-name="pause2" d="M128 832h320v-768h-320zM576 832h320v-768h-320z" />
<glyph unicode="&#xea1e;" glyph-name="stop2" d="M128 832h768v-768h-768z" />
<glyph unicode="&#xea26;" glyph-name="volume-high" horiz-adv-x="1088" d="M890.040 37.96c-12.286 0-24.566 4.686-33.942 14.056-18.744 18.746-18.744 49.136 0 67.882 87.638 87.642 135.904 204.16 135.904 328.1 0 123.938-48.266 240.458-135.904 328.098-18.744 18.746-18.744 49.138 0 67.882s49.138 18.744 67.882 0c105.77-105.772 164.022-246.4 164.022-395.98s-58.252-290.208-164.022-395.98c-9.372-9.372-21.656-14.058-33.94-14.058zM719.53 128.47c-12.286 0-24.566 4.686-33.942 14.056-18.744 18.744-18.744 49.136 0 67.882 131.006 131.006 131.006 344.17 0 475.176-18.744 18.746-18.744 49.138 0 67.882 18.744 18.742 49.138 18.744 67.882 0 81.594-81.59 126.53-190.074 126.53-305.466 0-115.39-44.936-223.876-126.53-305.47-9.372-9.374-21.656-14.060-33.94-14.060v0zM549.020 218.98c-12.286 0-24.568 4.686-33.942 14.058-18.746 18.746-18.746 49.134 0 67.88 81.1 81.1 81.1 213.058 0 294.156-18.746 18.746-18.746 49.138 0 67.882s49.136 18.744 67.882 0c118.53-118.53 118.53-311.392 0-429.922-9.372-9.368-21.656-14.054-33.94-14.054zM416.006 0c-8.328 0-16.512 3.25-22.634 9.374l-246.626 246.626h-114.746c-17.672 0-32 14.326-32 32v320c0 17.672 14.328 32 32 32h114.746l246.626 246.628c9.154 9.154 22.916 11.89 34.874 6.936 11.958-4.952 19.754-16.622 19.754-29.564v-832c0-12.944-7.796-24.612-19.754-29.564-3.958-1.64-8.118-2.436-12.24-2.436z" />
<glyph unicode="&#xea2a;" glyph-name="volume-mute2" d="M960 340.852v-84.852h-84.852l-107.148 107.148-107.148-107.148h-84.852v84.852l107.148 107.148-107.148 107.148v84.852h84.852l107.148-107.148 107.148 107.148h84.852v-84.852l-107.148-107.148 107.148-107.148zM416.006 0c-8.328 0-16.512 3.25-22.634 9.374l-246.626 246.626h-114.746c-17.672 0-32 14.326-32 32v320c0 17.672 14.328 32 32 32h114.746l246.626 246.628c9.154 9.154 22.916 11.89 34.874 6.936 11.958-4.952 19.754-16.622 19.754-29.564v-832c0-12.944-7.796-24.612-19.754-29.564-3.958-1.64-8.118-2.436-12.24-2.436z" />
<glyph unicode="&#xea3b;" glyph-name="arrow-up-right2" d="M237.254 82.746l530.746 530.744v-229.49c0-35.346 28.654-64 64-64s64 28.654 64 64v384c0 25.884-15.594 49.222-39.508 59.126-7.924 3.284-16.242 4.84-24.492 4.838v0.036h-384c-35.346 0-64-28.654-64-64 0-35.348 28.654-64 64-64h229.49l-530.744-530.746c-12.498-12.496-18.746-28.876-18.746-45.254s6.248-32.758 18.746-45.254c24.992-24.994 65.516-24.994 90.508 0z" />
<glyph unicode="&#xea3c;" glyph-name="arrow-right2" d="M621.254 82.746l320 320c24.994 24.992 24.994 65.516 0 90.51l-320 320c-24.994 24.992-65.516 24.992-90.51 0-24.994-24.994-24.994-65.516 0-90.51l210.746-210.746h-613.49c-35.346 0-64-28.654-64-64s28.654-64 64-64h613.49l-210.746-210.746c-12.496-12.496-18.744-28.876-18.744-45.254s6.248-32.758 18.744-45.254c24.994-24.994 65.516-24.994 90.51 0z" />
<glyph unicode="&#xea3d;" glyph-name="arrow-down-right2" d="M146.746 722.746l530.742-530.746h-229.488c-35.346 0-64-28.654-64-64s28.654-64 64-64h384c25.884 0 49.222 15.594 59.126 39.508 3.284 7.924 4.84 16.242 4.838 24.492h0.036v384c0 35.346-28.654 64-64 64-35.348 0-64-28.654-64-64v-229.49l-530.746 530.744c-12.496 12.498-28.874 18.746-45.254 18.746s-32.758-6.248-45.254-18.746c-24.994-24.992-24.994-65.516 0-90.508z" />
<glyph unicode="&#xea3e;" glyph-name="arrow-down2" d="M877.254 338.746l-320-320c-24.992-24.994-65.514-24.994-90.508 0l-320 320c-24.994 24.994-24.994 65.516 0 90.51 24.994 24.996 65.516 24.996 90.51 0l210.744-210.746v613.49c0 35.346 28.654 64 64 64s64-28.654 64-64v-613.49l210.746 210.746c12.496 12.496 28.876 18.744 45.254 18.744s32.758-6.248 45.254-18.746c24.994-24.994 24.994-65.514 0-90.508z" />
<glyph unicode="&#xea3f;" glyph-name="arrow-down-left2" d="M786.744 813.256l-530.744-530.744v229.49c0 35.346-28.654 64-64 64s-64-28.654-64-64v-384.002c0-25.886 15.592-49.222 39.508-59.128 7.924-3.282 16.242-4.84 24.492-4.836v-0.036l384 0.002c35.344 0 64 28.654 64 63.998 0 35.348-28.656 64-64 64h-229.49l530.744 530.746c12.496 12.496 18.746 28.876 18.746 45.256 0 16.376-6.25 32.758-18.746 45.254-24.992 24.992-65.518 24.992-90.51 0v0z" />
<glyph unicode="&#xea40;" glyph-name="arrow-left2" d="M402.746 82.746l-320 320c-24.994 24.992-24.994 65.516 0 90.51l320 320c24.994 24.992 65.516 24.992 90.51 0 24.994-24.994 24.994-65.516 0-90.51l-210.746-210.746h613.49c35.346 0 64-28.654 64-64s-28.654-64-64-64h-613.49l210.746-210.746c12.496-12.496 18.744-28.876 18.744-45.254s-6.248-32.758-18.744-45.254c-24.994-24.994-65.516-24.994-90.51 0z" />
<glyph unicode="&#xea4c;" glyph-name="sort-amount-asc" d="M320 192v768h-128v-768h-160l224-224 224 224h-160zM448 384h576v-128h-576v128zM448 576h448v-128h-448v128zM448 768h320v-128h-320v128zM448 960h192v-128h-192v128z" />
<glyph unicode="&#xea4d;" glyph-name="sort-amount-desc" d="M320 192v768h-128v-768h-160l224-224 224 224h-160zM448 960h576v-128h-576v128zM448 768h448v-128h-448v128zM448 576h320v-128h-320v128zM448 384h192v-128h-192v128z" />
<glyph unicode="&#xea54;" glyph-name="radio-checked" d="M512 960c-282.77 0-512-229.23-512-512s229.23-512 512-512 512 229.23 512 512-229.23 512-512 512zM512 64c-212.078 0-384 171.922-384 384s171.922 384 384 384c212.078 0 384-171.922 384-384s-171.922-384-384-384zM320 448c0 106.039 85.961 192 192 192s192-85.961 192-192c0-106.039-85.961-192-192-192s-192 85.961-192 192z" />
<glyph unicode="&#xea55;" glyph-name="radio-checked2" d="M512 960c-282.77 0-512-229.23-512-512s229.23-512 512-512 512 229.23 512 512-229.23 512-512 512zM512 320c-70.692 0-128 57.306-128 128 0 70.692 57.308 128 128 128 70.694 0 128-57.308 128-128 0-70.694-57.306-128-128-128z" />
</font>
</defs>
</svg>
